<?xml version="1.0" encoding="UTF-8" standalone="no"?>
<!DOCTYPE svg PUBLIC "-//W3C//DTD SVG 1.1//EN"
 "http://www.w3.org/Graphics/SVG/1.1/DTD/svg11.dtd">
<!-- Generated by graphviz version 2.40.1 (20161225.0304)
 -->
<!-- Title: G Pages: 1 -->
<svg width="708pt" height="3674pt"
 viewBox="0.00 0.00 707.67 3674.00" xmlns="http://www.w3.org/2000/svg" xmlns:xlink="http://www.w3.org/1999/xlink">
<g id="graph0" class="graph" transform="scale(1 1) rotate(0) translate(4 3670)">
<title>G</title>
<polygon fill="#ffffff" stroke="transparent" points="-4,4 -4,-3670 703.6709,-3670 703.6709,4 -4,4"/>
<g id="clust1" class="cluster">
<title>cluster_Global</title>
<path fill="none" stroke="#c0c0c0" d="M20,-8C20,-8 679.6709,-8 679.6709,-8 685.6709,-8 691.6709,-14 691.6709,-20 691.6709,-20 691.6709,-3646 691.6709,-3646 691.6709,-3652 685.6709,-3658 679.6709,-3658 679.6709,-3658 20,-3658 20,-3658 14,-3658 8,-3652 8,-3646 8,-3646 8,-20 8,-20 8,-14 14,-8 20,-8"/>
<text text-anchor="middle" x="349.8354" y="-3645.2" font-family="Times,serif" font-size="11.00" fill="#c0c0c0">Global</text>
</g>
<g id="clust2" class="cluster">
<title>cluster_\Freshwork</title>
<path fill="none" stroke="#c0c0c0" d="M28,-16C28,-16 671.6709,-16 671.6709,-16 677.6709,-16 683.6709,-22 683.6709,-28 683.6709,-28 683.6709,-3521 683.6709,-3521 683.6709,-3527 677.6709,-3533 671.6709,-3533 671.6709,-3533 28,-3533 28,-3533 22,-3533 16,-3527 16,-3521 16,-3521 16,-28 16,-28 16,-22 22,-16 28,-16"/>
<text text-anchor="middle" x="349.8354" y="-3520.2" font-family="Times,serif" font-size="11.00" fill="#c0c0c0">Freshwork</text>
</g>
<g id="clust3" class="cluster">
<title>cluster_\Freshwork\Transbank</title>
<path fill="none" stroke="#c0c0c0" d="M36,-24C36,-24 663.6709,-24 663.6709,-24 669.6709,-24 675.6709,-30 675.6709,-36 675.6709,-36 675.6709,-3494 675.6709,-3494 675.6709,-3500 669.6709,-3506 663.6709,-3506 663.6709,-3506 36,-3506 36,-3506 30,-3506 24,-3500 24,-3494 24,-3494 24,-36 24,-36 24,-30 30,-24 36,-24"/>
<text text-anchor="middle" x="349.8354" y="-3493.2" font-family="Times,serif" font-size="11.00" fill="#c0c0c0">Transbank</text>
</g>
<g id="clust5" class="cluster">
<title>cluster_\Freshwork\Transbank\WebpayStandard</title>
<path fill="none" stroke="#c0c0c0" d="M446.3381,-2529C446.3381,-2529 652.3704,-2529 652.3704,-2529 658.3704,-2529 664.3704,-2535 664.3704,-2541 664.3704,-2541 664.3704,-3290 664.3704,-3290 664.3704,-3296 658.3704,-3302 652.3704,-3302 652.3704,-3302 446.3381,-3302 446.3381,-3302 440.3381,-3302 434.3381,-3296 434.3381,-3290 434.3381,-3290 434.3381,-2541 434.3381,-2541 434.3381,-2535 440.3381,-2529 446.3381,-2529"/>
<text text-anchor="middle" x="549.3542" y="-3289.2" font-family="Times,serif" font-size="11.00" fill="#c0c0c0">WebpayStandard</text>
</g>
<g id="clust4" class="cluster">
<title>cluster_\Freshwork\Transbank\WebpayOneClick</title>
<path fill="none" stroke="#c0c0c0" d="M443.0376,-1262C443.0376,-1262 655.6709,-1262 655.6709,-1262 661.6709,-1262 667.6709,-1268 667.6709,-1274 667.6709,-1274 667.6709,-2509 667.6709,-2509 667.6709,-2515 661.6709,-2521 655.6709,-2521 655.6709,-2521 443.0376,-2521 443.0376,-2521 437.0376,-2521 431.0376,-2515 431.0376,-2509 431.0376,-2509 431.0376,-1274 431.0376,-1274 431.0376,-1268 437.0376,-1262 443.0376,-1262"/>
<text text-anchor="middle" x="549.3542" y="-2508.2" font-family="Times,serif" font-size="11.00" fill="#c0c0c0">WebpayOneClick</text>
</g>
<g id="clust6" class="cluster">
<title>cluster_\Freshwork\Transbank\Exceptions</title>
<path fill="none" stroke="#c0c0c0" d="M456.2397,-3310C456.2397,-3310 642.4688,-3310 642.4688,-3310 648.4688,-3310 654.4688,-3316 654.4688,-3322 654.4688,-3322 654.4688,-3423 654.4688,-3423 654.4688,-3429 648.4688,-3435 642.4688,-3435 642.4688,-3435 456.2397,-3435 456.2397,-3435 450.2397,-3435 444.2397,-3429 444.2397,-3423 444.2397,-3423 444.2397,-3322 444.2397,-3322 444.2397,-3316 450.2397,-3310 456.2397,-3310"/>
<text text-anchor="middle" x="549.3542" y="-3422.2" font-family="Times,serif" font-size="11.00" fill="#c0c0c0">Exceptions</text>
</g>
<g id="clust7" class="cluster">
<title>cluster_\Freshwork\Transbank\Log</title>
<path fill="none" stroke="#c0c0c0" d="M242.8193,-456C242.8193,-456 645.7693,-456 645.7693,-456 651.7693,-456 657.7693,-462 657.7693,-468 657.7693,-468 657.7693,-677 657.7693,-677 657.7693,-683 651.7693,-689 645.7693,-689 645.7693,-689 242.8193,-689 242.8193,-689 236.8193,-689 230.8193,-683 230.8193,-677 230.8193,-677 230.8193,-468 230.8193,-468 230.8193,-462 236.8193,-456 242.8193,-456"/>
<text text-anchor="middle" x="444.2943" y="-676.2" font-family="Times,serif" font-size="11.00" fill="#c0c0c0">Log</text>
</g>
<g id="clust8" class="cluster">
<title>cluster_\Freshwork\Transbank\WebpayCaptureNullify</title>
<path fill="none" stroke="#c0c0c0" d="M446.3381,-697C446.3381,-697 652.3704,-697 652.3704,-697 658.3704,-697 664.3704,-703 664.3704,-709 664.3704,-709 664.3704,-1242 664.3704,-1242 664.3704,-1248 658.3704,-1254 652.3704,-1254 652.3704,-1254 446.3381,-1254 446.3381,-1254 440.3381,-1254 434.3381,-1248 434.3381,-1242 434.3381,-1242 434.3381,-709 434.3381,-709 434.3381,-703 440.3381,-697 446.3381,-697"/>
<text text-anchor="middle" x="549.3542" y="-1241.2" font-family="Times,serif" font-size="11.00" fill="#c0c0c0">WebpayCaptureNullify</text>
</g>
<!-- \\Freshwork\\Transbank\\WebpayOneClick\\CodeReverseOneClick -->
<g id="node1" class="node">
<title>\\Freshwork\\Transbank\\WebpayOneClick\\CodeReverseOneClick</title>
<polygon fill="none" stroke="#000000" points="620.2753,-2494 478.4332,-2494 478.4332,-2458 620.2753,-2458 620.2753,-2494"/>
<text text-anchor="middle" x="549.3542" y="-2472.7" font-family="Courier,monospace" font-size="11.00" fill="#000000">CodeReverseOneClick</text>
</g>
<!-- \\Freshwork\\Transbank\\WebpayOneClick\\InitInscriptionResponse -->
<g id="node2" class="node">
<title>\\Freshwork\\Transbank\\WebpayOneClick\\InitInscriptionResponse</title>
<polygon fill="none" stroke="#000000" points="633.179,-2440 465.5294,-2440 465.5294,-2404 633.179,-2404 633.179,-2440"/>
<text text-anchor="middle" x="549.3542" y="-2418.7" font-family="Courier,monospace" font-size="11.00" fill="#000000">InitInscriptionResponse</text>
</g>
<!-- \\Freshwork\\Transbank\\WebpayOneClick\\FinishInscriptionResponse -->
<g id="node3" class="node">
<title>\\Freshwork\\Transbank\\WebpayOneClick\\FinishInscriptionResponse</title>
<polygon fill="none" stroke="#000000" points="639.8811,-2386 458.8274,-2386 458.8274,-2350 639.8811,-2350 639.8811,-2386"/>
<text text-anchor="middle" x="549.3542" y="-2364.7" font-family="Courier,monospace" font-size="11.00" fill="#000000">FinishInscriptionResponse</text>
</g>
<!-- \\Freshwork\\Transbank\\WebpayOneClick\\OneClickReverseOutput -->
<g id="node4" class="node">
<title>\\Freshwork\\Transbank\\WebpayOneClick\\OneClickReverseOutput</title>
<polygon fill="none" stroke="#000000" points="626.4773,-2332 472.2312,-2332 472.2312,-2296 626.4773,-2296 626.4773,-2332"/>
<text text-anchor="middle" x="549.3542" y="-2310.7" font-family="Courier,monospace" font-size="11.00" fill="#000000">OneClickReverseOutput</text>
</g>
<!-- \\Freshwork\\Transbank\\WebpayOneClick\\OneClickInscriptionInput -->
<g id="node5" class="node">
<title>\\Freshwork\\Transbank\\WebpayOneClick\\OneClickInscriptionInput</title>
<polygon fill="none" stroke="#000000" points="636.7806,-2278 461.9279,-2278 461.9279,-2242 636.7806,-2242 636.7806,-2278"/>
<text text-anchor="middle" x="549.3542" y="-2256.7" font-family="Courier,monospace" font-size="11.00" fill="#000000">OneClickInscriptionInput</text>
</g>
<!-- \\Freshwork\\Transbank\\WebpayOneClick\\FinishInscription -->
<g id="node6" class="node">
<title>\\Freshwork\\Transbank\\WebpayOneClick\\FinishInscription</title>
<polygon fill="none" stroke="#000000" points="613.5727,-2224 485.1358,-2224 485.1358,-2188 613.5727,-2188 613.5727,-2224"/>
<text text-anchor="middle" x="549.3542" y="-2202.7" font-family="Courier,monospace" font-size="11.00" fill="#000000">FinishInscription</text>
</g>
<!-- \\Freshwork\\Transbank\\WebpayOneClick\\OneClickPayInput -->
<g id="node7" class="node">
<title>\\Freshwork\\Transbank\\WebpayOneClick\\OneClickPayInput</title>
<polygon fill="none" stroke="#000000" points="609.972,-2170 488.7365,-2170 488.7365,-2134 609.972,-2134 609.972,-2170"/>
<text text-anchor="middle" x="549.3542" y="-2148.7" font-family="Courier,monospace" font-size="11.00" fill="#000000">OneClickPayInput</text>
</g>
<!-- \\Freshwork\\Transbank\\WebpayOneClick\\Authorize -->
<g id="node8" class="node">
<title>\\Freshwork\\Transbank\\WebpayOneClick\\Authorize</title>
<polygon fill="none" stroke="#000000" points="587.265,-2116 511.4435,-2116 511.4435,-2080 587.265,-2080 587.265,-2116"/>
<text text-anchor="middle" x="549.3542" y="-2094.7" font-family="Courier,monospace" font-size="11.00" fill="#000000">Authorize</text>
</g>
<!-- \\Freshwork\\Transbank\\WebpayOneClick\\AuthorizeResponse -->
<g id="node9" class="node">
<title>\\Freshwork\\Transbank\\WebpayOneClick\\AuthorizeResponse</title>
<polygon fill="none" stroke="#000000" points="613.5727,-2062 485.1358,-2062 485.1358,-2026 613.5727,-2026 613.5727,-2062"/>
<text text-anchor="middle" x="549.3542" y="-2040.7" font-family="Courier,monospace" font-size="11.00" fill="#000000">AuthorizeResponse</text>
</g>
<!-- \\Freshwork\\Transbank\\WebpayOneClick\\WebpayOneClickWebService -->
<g id="node10" class="node">
<title>\\Freshwork\\Transbank\\WebpayOneClick\\WebpayOneClickWebService</title>
<polygon fill="none" stroke="#000000" points="636.7806,-2008 461.9279,-2008 461.9279,-1972 636.7806,-1972 636.7806,-2008"/>
<text text-anchor="middle" x="549.3542" y="-1986.7" font-family="Courier,monospace" font-size="11.00" fill="#000000">WebpayOneClickWebService</text>
</g>
<!-- \\Freshwork\\Transbank\\TransbankWebService -->
<g id="node57" class="node">
<title>\\Freshwork\\Transbank\\TransbankWebService</title>
<polygon fill="none" stroke="#000000" points="367.2484,-2008 225.4064,-2008 225.4064,-1972 367.2484,-1972 367.2484,-2008"/>
<text text-anchor="start" x="263.322" y="-1992.2" font-family="Courier,monospace" font-size="11.00" fill="#000000">«abstract»</text>
<text text-anchor="start" x="233.6172" y="-1981.2" font-family="Courier,monospace" font-size="11.00" fill="#000000">TransbankWebService</text>
</g>
<!-- \\Freshwork\\Transbank\\WebpayOneClick\\WebpayOneClickWebService&#45;&gt;\\Freshwork\\Transbank\\TransbankWebService -->
<g id="edge2" class="edge">
<title>\\Freshwork\\Transbank\\WebpayOneClick\\WebpayOneClickWebService&#45;&gt;\\Freshwork\\Transbank\\TransbankWebService</title>
<path fill="none" stroke="#000000" d="M461.9225,-1990C434.5633,-1990 404.5002,-1990 377.5847,-1990"/>
<polygon fill="none" stroke="#000000" points="377.4355,-1986.5001 367.4354,-1990 377.4354,-1993.5001 377.4355,-1986.5001"/>
</g>
<!-- \\Freshwork\\Transbank\\WebpayOneClick\\OneClickFinishInscriptionOutput -->
<g id="node11" class="node">
<title>\\Freshwork\\Transbank\\WebpayOneClick\\OneClickFinishInscriptionOutput</title>
<polygon fill="none" stroke="#000000" points="659.4879,-1954 439.2206,-1954 439.2206,-1918 659.4879,-1918 659.4879,-1954"/>
<text text-anchor="middle" x="549.3542" y="-1932.7" font-family="Courier,monospace" font-size="11.00" fill="#000000">OneClickFinishInscriptionOutput</text>
</g>
<!-- \\Freshwork\\Transbank\\WebpayOneClick\\OneClickRemoveUserInput -->
<g id="node12" class="node">
<title>\\Freshwork\\Transbank\\WebpayOneClick\\OneClickRemoveUserInput</title>
<polygon fill="none" stroke="#000000" points="633.179,-1900 465.5294,-1900 465.5294,-1864 633.179,-1864 633.179,-1900"/>
<text text-anchor="middle" x="549.3542" y="-1878.7" font-family="Courier,monospace" font-size="11.00" fill="#000000">OneClickRemoveUserInput</text>
</g>
<!-- \\Freshwork\\Transbank\\WebpayOneClick\\RemoveUserResponse -->
<g id="node13" class="node">
<title>\\Freshwork\\Transbank\\WebpayOneClick\\RemoveUserResponse</title>
<polygon fill="none" stroke="#000000" points="616.6737,-1846 482.0348,-1846 482.0348,-1810 616.6737,-1810 616.6737,-1846"/>
<text text-anchor="middle" x="549.3542" y="-1824.7" font-family="Courier,monospace" font-size="11.00" fill="#000000">RemoveUserResponse</text>
</g>
<!-- \\Freshwork\\Transbank\\WebpayOneClick\\InitInscription -->
<g id="node14" class="node">
<title>\\Freshwork\\Transbank\\WebpayOneClick\\InitInscription</title>
<polygon fill="none" stroke="#000000" points="606.8704,-1792 491.8381,-1792 491.8381,-1756 606.8704,-1756 606.8704,-1792"/>
<text text-anchor="middle" x="549.3542" y="-1770.7" font-family="Courier,monospace" font-size="11.00" fill="#000000">InitInscription</text>
</g>
<!-- \\Freshwork\\Transbank\\WebpayOneClick\\CodeReverseOneClickResponse -->
<g id="node15" class="node">
<title>\\Freshwork\\Transbank\\WebpayOneClick\\CodeReverseOneClickResponse</title>
<polygon fill="none" stroke="#000000" points="646.5834,-1738 452.1251,-1738 452.1251,-1702 646.5834,-1702 646.5834,-1738"/>
<text text-anchor="middle" x="549.3542" y="-1716.7" font-family="Courier,monospace" font-size="11.00" fill="#000000">CodeReverseOneClickResponse</text>
</g>
<!-- \\Freshwork\\Transbank\\WebpayOneClick\\OneClickFinishInscriptionInput -->
<g id="node16" class="node">
<title>\\Freshwork\\Transbank\\WebpayOneClick\\OneClickFinishInscriptionInput</title>
<polygon fill="none" stroke="#000000" points="656.3865,-1684 442.322,-1684 442.322,-1648 656.3865,-1648 656.3865,-1684"/>
<text text-anchor="middle" x="549.3542" y="-1662.7" font-family="Courier,monospace" font-size="11.00" fill="#000000">OneClickFinishInscriptionInput</text>
</g>
<!-- \\Freshwork\\Transbank\\WebpayOneClick\\Reverse -->
<g id="node17" class="node">
<title>\\Freshwork\\Transbank\\WebpayOneClick\\Reverse</title>
<polygon fill="none" stroke="#000000" points="580.5621,-1630 518.1464,-1630 518.1464,-1594 580.5621,-1594 580.5621,-1630"/>
<text text-anchor="middle" x="549.3542" y="-1608.7" font-family="Courier,monospace" font-size="11.00" fill="#000000">Reverse</text>
</g>
<!-- \\Freshwork\\Transbank\\WebpayOneClick\\BaseBean -->
<g id="node18" class="node">
<title>\\Freshwork\\Transbank\\WebpayOneClick\\BaseBean</title>
<polygon fill="none" stroke="#000000" points="583.6631,-1576 515.0454,-1576 515.0454,-1540 583.6631,-1540 583.6631,-1576"/>
<text text-anchor="middle" x="549.3542" y="-1554.7" font-family="Courier,monospace" font-size="11.00" fill="#000000">BaseBean</text>
</g>
<!-- \\Freshwork\\Transbank\\WebpayOneClick\\OneClickPayOutput -->
<g id="node19" class="node">
<title>\\Freshwork\\Transbank\\WebpayOneClick\\OneClickPayOutput</title>
<polygon fill="none" stroke="#000000" points="613.5727,-1522 485.1358,-1522 485.1358,-1486 613.5727,-1486 613.5727,-1522"/>
<text text-anchor="middle" x="549.3542" y="-1500.7" font-family="Courier,monospace" font-size="11.00" fill="#000000">OneClickPayOutput</text>
</g>
<!-- \\Freshwork\\Transbank\\WebpayOneClick\\RemoveUser -->
<g id="node20" class="node">
<title>\\Freshwork\\Transbank\\WebpayOneClick\\RemoveUser</title>
<polygon fill="none" stroke="#000000" points="590.365,-1468 508.3435,-1468 508.3435,-1432 590.365,-1432 590.365,-1468"/>
<text text-anchor="middle" x="549.3542" y="-1446.7" font-family="Courier,monospace" font-size="11.00" fill="#000000">RemoveUser</text>
</g>
<!-- \\Freshwork\\Transbank\\WebpayOneClick\\OneClickReverseInput -->
<g id="node21" class="node">
<title>\\Freshwork\\Transbank\\WebpayOneClick\\OneClickReverseInput</title>
<polygon fill="none" stroke="#000000" points="623.3757,-1414 475.3328,-1414 475.3328,-1378 623.3757,-1378 623.3757,-1414"/>
<text text-anchor="middle" x="549.3542" y="-1392.7" font-family="Courier,monospace" font-size="11.00" fill="#000000">OneClickReverseInput</text>
</g>
<!-- \\Freshwork\\Transbank\\WebpayOneClick\\OneClickInscriptionOutput -->
<g id="node22" class="node">
<title>\\Freshwork\\Transbank\\WebpayOneClick\\OneClickInscriptionOutput</title>
<polygon fill="none" stroke="#000000" points="639.8811,-1360 458.8274,-1360 458.8274,-1324 639.8811,-1324 639.8811,-1360"/>
<text text-anchor="middle" x="549.3542" y="-1338.7" font-family="Courier,monospace" font-size="11.00" fill="#000000">OneClickInscriptionOutput</text>
</g>
<!-- \\Freshwork\\Transbank\\WebpayOneClick\\ReverseResponse -->
<g id="node23" class="node">
<title>\\Freshwork\\Transbank\\WebpayOneClick\\ReverseResponse</title>
<polygon fill="none" stroke="#000000" points="606.8704,-1306 491.8381,-1306 491.8381,-1270 606.8704,-1270 606.8704,-1306"/>
<text text-anchor="middle" x="549.3542" y="-1284.7" font-family="Courier,monospace" font-size="11.00" fill="#000000">ReverseResponse</text>
</g>
<!-- \\Freshwork\\Transbank\\WebpayStandard\\TransactionResultOutput -->
<g id="node24" class="node">
<title>\\Freshwork\\Transbank\\WebpayStandard\\TransactionResultOutput</title>
<polygon fill="none" stroke="#000000" points="633.179,-3275 465.5294,-3275 465.5294,-3239 633.179,-3239 633.179,-3275"/>
<text text-anchor="middle" x="549.3542" y="-3253.7" font-family="Courier,monospace" font-size="11.00" fill="#000000">TransactionResultOutput</text>
</g>
<!-- \\Freshwork\\Transbank\\WebpayStandard\\WebpayStandardWebService -->
<g id="node25" class="node">
<title>\\Freshwork\\Transbank\\WebpayStandard\\WebpayStandardWebService</title>
<polygon fill="none" stroke="#000000" points="636.7806,-3221 461.9279,-3221 461.9279,-3185 636.7806,-3185 636.7806,-3221"/>
<text text-anchor="middle" x="549.3542" y="-3199.7" font-family="Courier,monospace" font-size="11.00" fill="#000000">WebpayStandardWebService</text>
</g>
<!-- \\Freshwork\\Transbank\\WebpayStandard\\WebpayStandardWebService&#45;&gt;\\Freshwork\\Transbank\\TransbankWebService -->
<g id="edge4" class="edge">
<title>\\Freshwork\\Transbank\\WebpayStandard\\WebpayStandardWebService&#45;&gt;\\Freshwork\\Transbank\\TransbankWebService</title>
<path fill="none" stroke="#000000" d="M462.1173,-3196.8586C450.198,-3192.39 439.256,-3185.7437 431.0376,-3176 266.1335,-2980.4899 519.6979,-2235.5761 369.4577,-2016.2034"/>
<polygon fill="none" stroke="#000000" points="372.1889,-2014.0088 363.46,-2008.0039 366.539,-2018.1415 372.1889,-2014.0088"/>
</g>
<!-- \\Freshwork\\Transbank\\WebpayStandard\\InitTransaction -->
<g id="node26" class="node">
<title>\\Freshwork\\Transbank\\WebpayStandard\\InitTransaction</title>
<polygon fill="none" stroke="#000000" points="606.8704,-3167 491.8381,-3167 491.8381,-3131 606.8704,-3131 606.8704,-3167"/>
<text text-anchor="middle" x="549.3542" y="-3145.7" font-family="Courier,monospace" font-size="11.00" fill="#000000">InitTransaction</text>
</g>
<!-- \\Freshwork\\Transbank\\WebpayStandard\\AcknowledgeTransaction -->
<g id="node27" class="node">
<title>\\Freshwork\\Transbank\\WebpayStandard\\AcknowledgeTransaction</title>
<polygon fill="none" stroke="#000000" points="630.078,-3113 468.6305,-3113 468.6305,-3077 630.078,-3077 630.078,-3113"/>
<text text-anchor="middle" x="549.3542" y="-3091.7" font-family="Courier,monospace" font-size="11.00" fill="#000000">AcknowledgeTransaction</text>
</g>
<!-- \\Freshwork\\Transbank\\WebpayStandard\\InitTransactionResponse -->
<g id="node28" class="node">
<title>\\Freshwork\\Transbank\\WebpayStandard\\InitTransactionResponse</title>
<polygon fill="none" stroke="#000000" points="633.179,-3059 465.5294,-3059 465.5294,-3023 633.179,-3023 633.179,-3059"/>
<text text-anchor="middle" x="549.3542" y="-3037.7" font-family="Courier,monospace" font-size="11.00" fill="#000000">InitTransactionResponse</text>
</g>
<!-- \\Freshwork\\Transbank\\WebpayStandard\\TransactionDetailOutput -->
<g id="node29" class="node">
<title>\\Freshwork\\Transbank\\WebpayStandard\\TransactionDetailOutput</title>
<polygon fill="none" stroke="#000000" points="633.179,-3005 465.5294,-3005 465.5294,-2969 633.179,-2969 633.179,-3005"/>
<text text-anchor="middle" x="549.3542" y="-2983.7" font-family="Courier,monospace" font-size="11.00" fill="#000000">TransactionDetailOutput</text>
</g>
<!-- \\Freshwork\\Transbank\\WebpayStandard\\AcknowledgeTransactionResponse -->
<g id="node30" class="node">
<title>\\Freshwork\\Transbank\\WebpayStandard\\AcknowledgeTransactionResponse</title>
<polygon fill="none" stroke="#000000" points="656.3865,-2951 442.322,-2951 442.322,-2915 656.3865,-2915 656.3865,-2951"/>
<text text-anchor="middle" x="549.3542" y="-2929.7" font-family="Courier,monospace" font-size="11.00" fill="#000000">AcknowledgeTransactionResponse</text>
</g>
<!-- \\Freshwork\\Transbank\\WebpayStandard\\TransactionResult -->
<g id="node31" class="node">
<title>\\Freshwork\\Transbank\\WebpayStandard\\TransactionResult</title>
<polygon fill="none" stroke="#000000" points="613.5727,-2897 485.1358,-2897 485.1358,-2861 613.5727,-2861 613.5727,-2897"/>
<text text-anchor="middle" x="549.3542" y="-2875.7" font-family="Courier,monospace" font-size="11.00" fill="#000000">TransactionResult</text>
</g>
<!-- \\Freshwork\\Transbank\\WebpayStandard\\TransactionResultResponse -->
<g id="node32" class="node">
<title>\\Freshwork\\Transbank\\WebpayStandard\\TransactionResultResponse</title>
<polygon fill="none" stroke="#000000" points="639.8811,-2843 458.8274,-2843 458.8274,-2807 639.8811,-2807 639.8811,-2843"/>
<text text-anchor="middle" x="549.3542" y="-2821.7" font-family="Courier,monospace" font-size="11.00" fill="#000000">TransactionResultResponse</text>
</g>
<!-- \\Freshwork\\Transbank\\WebpayStandard\\InitTransactionOutput -->
<g id="node33" class="node">
<title>\\Freshwork\\Transbank\\WebpayStandard\\InitTransactionOutput</title>
<polygon fill="none" stroke="#000000" points="626.4773,-2789 472.2312,-2789 472.2312,-2753 626.4773,-2753 626.4773,-2789"/>
<text text-anchor="middle" x="549.3542" y="-2767.7" font-family="Courier,monospace" font-size="11.00" fill="#000000">InitTransactionOutput</text>
</g>
<!-- \\Freshwork\\Transbank\\WebpayStandard\\DetailInput -->
<g id="node34" class="node">
<title>\\Freshwork\\Transbank\\WebpayStandard\\DetailInput</title>
<polygon fill="none" stroke="#000000" points="593.4669,-2735 505.2416,-2735 505.2416,-2699 593.4669,-2699 593.4669,-2735"/>
<text text-anchor="middle" x="549.3542" y="-2713.7" font-family="Courier,monospace" font-size="11.00" fill="#000000">DetailInput</text>
</g>
<!-- \\Freshwork\\Transbank\\WebpayStandard\\TransactionDetail -->
<g id="node35" class="node">
<title>\\Freshwork\\Transbank\\WebpayStandard\\TransactionDetail</title>
<polygon fill="none" stroke="#000000" points="613.5727,-2681 485.1358,-2681 485.1358,-2645 613.5727,-2645 613.5727,-2681"/>
<text text-anchor="middle" x="549.3542" y="-2659.7" font-family="Courier,monospace" font-size="11.00" fill="#000000">TransactionDetail</text>
</g>
<!-- \\Freshwork\\Transbank\\WebpayStandard\\InitTransactionInput -->
<g id="node36" class="node">
<title>\\Freshwork\\Transbank\\WebpayStandard\\InitTransactionInput</title>
<polygon fill="none" stroke="#000000" points="623.3757,-2627 475.3328,-2627 475.3328,-2591 623.3757,-2591 623.3757,-2627"/>
<text text-anchor="middle" x="549.3542" y="-2605.7" font-family="Courier,monospace" font-size="11.00" fill="#000000">InitTransactionInput</text>
</g>
<!-- \\Freshwork\\Transbank\\WebpayStandard\\CardDetail -->
<g id="node37" class="node">
<title>\\Freshwork\\Transbank\\WebpayStandard\\CardDetail</title>
<polygon fill="none" stroke="#000000" points="590.365,-2573 508.3435,-2573 508.3435,-2537 590.365,-2537 590.365,-2573"/>
<text text-anchor="middle" x="549.3542" y="-2551.7" font-family="Courier,monospace" font-size="11.00" fill="#000000">CardDetail</text>
</g>
<!-- \\Freshwork\\Transbank\\Exceptions\\InvalidCertificateException -->
<g id="node38" class="node">
<title>\\Freshwork\\Transbank\\Exceptions\\InvalidCertificateException</title>
<polygon fill="none" stroke="#000000" points="646.5834,-3408 452.1251,-3408 452.1251,-3372 646.5834,-3372 646.5834,-3408"/>
<text text-anchor="middle" x="549.3542" y="-3386.7" font-family="Courier,monospace" font-size="11.00" fill="#000000">InvalidCertificateException</text>
</g>
<!-- Exception -->
<g id="node69" class="node">
<title>Exception</title>
<ellipse fill="none" stroke="#000000" cx="296.3274" cy="-3559" rx="45.92" ry="18"/>
<text text-anchor="middle" x="296.3274" y="-3554.8" font-family="Times,serif" font-size="14.00" fill="#c0c0c0">Exception</text>
</g>
<!-- \\Freshwork\\Transbank\\Exceptions\\InvalidCertificateException&#45;&gt;Exception -->
<g id="edge6" class="edge">
<title>\\Freshwork\\Transbank\\Exceptions\\InvalidCertificateException&#45;&gt;Exception</title>
<path fill="none" stroke="#000000" d="M452.1569,-3401.2232C444.7042,-3404.1085 437.5564,-3407.6536 431.0376,-3412 387.7552,-3440.8584 403.3133,-3472.714 367.0376,-3510 356.5616,-3520.7678 343.4016,-3530.6386 331.284,-3538.655"/>
<polygon fill="none" stroke="#000000" points="329.2336,-3535.8118 322.6981,-3544.1508 333.0074,-3541.7075 329.2336,-3535.8118"/>
</g>
<!-- \\Freshwork\\Transbank\\Exceptions\\EmptyTransactionException -->
<g id="node39" class="node">
<title>\\Freshwork\\Transbank\\Exceptions\\EmptyTransactionException</title>
<polygon fill="none" stroke="#000000" points="639.8811,-3354 458.8274,-3354 458.8274,-3318 639.8811,-3318 639.8811,-3354"/>
<text text-anchor="middle" x="549.3542" y="-3332.7" font-family="Courier,monospace" font-size="11.00" fill="#000000">EmptyTransactionException</text>
</g>
<!-- \\Freshwork\\Transbank\\Exceptions\\EmptyTransactionException&#45;&gt;Exception -->
<g id="edge7" class="edge">
<title>\\Freshwork\\Transbank\\Exceptions\\EmptyTransactionException&#45;&gt;Exception</title>
<path fill="none" stroke="#000000" d="M458.5681,-3347.2505C448.6023,-3351.1485 439.1471,-3356.276 431.0376,-3363 376.184,-3408.482 412.2695,-3454.94 367.0376,-3510 357.654,-3521.4226 344.9565,-3531.3371 332.9102,-3539.2023"/>
<polygon fill="none" stroke="#000000" points="330.9477,-3536.3012 324.3105,-3544.5594 334.6489,-3542.2427 330.9477,-3536.3012"/>
</g>
<!-- \\Freshwork\\Transbank\\Log\\LoggerFactory -->
<g id="node40" class="node">
<title>\\Freshwork\\Transbank\\Log\\LoggerFactory</title>
<polygon fill="none" stroke="#000000" points="600.1684,-662 498.5401,-662 498.5401,-626 600.1684,-626 600.1684,-662"/>
<text text-anchor="middle" x="549.3542" y="-640.7" font-family="Courier,monospace" font-size="11.00" fill="#000000">LoggerFactory</text>
</g>
<!-- \\Freshwork\\Transbank\\Log\\TransbankCertificationLogger -->
<g id="node41" class="node">
<title>\\Freshwork\\Transbank\\Log\\TransbankCertificationLogger</title>
<polygon fill="none" stroke="#000000" points="649.6844,-608 449.0241,-608 449.0241,-572 649.6844,-572 649.6844,-608"/>
<text text-anchor="middle" x="549.3542" y="-586.7" font-family="Courier,monospace" font-size="11.00" fill="#000000">TransbankCertificationLogger</text>
</g>
<!-- \\Freshwork\\Transbank\\Log\\LoggerInterface -->
<g id="node44" class="node">
<title>\\Freshwork\\Transbank\\Log\\LoggerInterface</title>
<polygon fill="none" stroke="#000000" points="353.8435,-581 238.8113,-581 238.8113,-545 353.8435,-545 353.8435,-581"/>
<text text-anchor="middle" x="296.3274" y="-559.7" font-family="Courier,monospace" font-size="11.00" fill="#000000">LoggerInterface</text>
</g>
<!-- \\Freshwork\\Transbank\\Log\\TransbankCertificationLogger&#45;&gt;\\Freshwork\\Transbank\\Log\\LoggerInterface -->
<g id="edge10" class="edge">
<title>\\Freshwork\\Transbank\\Log\\TransbankCertificationLogger&#45;&gt;\\Freshwork\\Transbank\\Log\\LoggerInterface</title>
<path fill="none" stroke="#000000" stroke-dasharray="1,5" d="M448.9879,-579.2901C420.4852,-576.2486 390.1309,-573.0096 364.0592,-570.2275"/>
<polygon fill="none" stroke="#000000" points="364.2324,-566.7262 353.9174,-569.1453 363.4896,-573.6867 364.2324,-566.7262"/>
</g>
<!-- \\Freshwork\\Transbank\\Log\\VoidLogger -->
<g id="node42" class="node">
<title>\\Freshwork\\Transbank\\Log\\VoidLogger</title>
<polygon fill="none" stroke="#000000" points="590.365,-554 508.3435,-554 508.3435,-518 590.365,-518 590.365,-554"/>
<text text-anchor="middle" x="549.3542" y="-532.7" font-family="Courier,monospace" font-size="11.00" fill="#000000">VoidLogger</text>
</g>
<!-- \\Freshwork\\Transbank\\Log\\VoidLogger&#45;&gt;\\Freshwork\\Transbank\\Log\\LoggerInterface -->
<g id="edge11" class="edge">
<title>\\Freshwork\\Transbank\\Log\\VoidLogger&#45;&gt;\\Freshwork\\Transbank\\Log\\LoggerInterface</title>
<path fill="none" stroke="#000000" stroke-dasharray="1,5" d="M508.138,-540.3981C469.2114,-544.5519 410.1187,-550.8576 364.2313,-555.7541"/>
<polygon fill="none" stroke="#000000" points="363.6331,-552.298 354.0609,-556.8394 364.3759,-559.2585 363.6331,-552.298"/>
</g>
<!-- \\Freshwork\\Transbank\\Log\\LogHandler -->
<g id="node43" class="node">
<title>\\Freshwork\\Transbank\\Log\\LogHandler</title>
<polygon fill="none" stroke="#000000" points="590.365,-500 508.3435,-500 508.3435,-464 590.365,-464 590.365,-500"/>
<text text-anchor="middle" x="549.3542" y="-478.7" font-family="Courier,monospace" font-size="11.00" fill="#000000">LogHandler</text>
</g>
<!-- \\Freshwork\\Transbank\\WebpayCaptureNullify\\NullificationInput -->
<g id="node45" class="node">
<title>\\Freshwork\\Transbank\\WebpayCaptureNullify\\NullificationInput</title>
<polygon fill="none" stroke="#000000" points="616.6737,-1227 482.0348,-1227 482.0348,-1191 616.6737,-1191 616.6737,-1227"/>
<text text-anchor="middle" x="549.3542" y="-1205.7" font-family="Courier,monospace" font-size="11.00" fill="#000000">NullificationInput</text>
</g>
<!-- \\Freshwork\\Transbank\\WebpayCaptureNullify\\CaptureInput -->
<g id="node46" class="node">
<title>\\Freshwork\\Transbank\\WebpayCaptureNullify\\CaptureInput</title>
<polygon fill="none" stroke="#000000" points="597.0674,-1173 501.6411,-1173 501.6411,-1137 597.0674,-1137 597.0674,-1173"/>
<text text-anchor="middle" x="549.3542" y="-1151.7" font-family="Courier,monospace" font-size="11.00" fill="#000000">CaptureInput</text>
</g>
<!-- \\Freshwork\\Transbank\\WebpayCaptureNullify\\CaptureOutput -->
<g id="node47" class="node">
<title>\\Freshwork\\Transbank\\WebpayCaptureNullify\\CaptureOutput</title>
<polygon fill="none" stroke="#000000" points="600.1684,-1119 498.5401,-1119 498.5401,-1083 600.1684,-1083 600.1684,-1119"/>
<text text-anchor="middle" x="549.3542" y="-1097.7" font-family="Courier,monospace" font-size="11.00" fill="#000000">CaptureOutput</text>
</g>
<!-- \\Freshwork\\Transbank\\WebpayCaptureNullify\\Nullify -->
<g id="node48" class="node">
<title>\\Freshwork\\Transbank\\WebpayCaptureNullify\\Nullify</title>
<polygon fill="none" stroke="#000000" points="580.5621,-1065 518.1464,-1065 518.1464,-1029 580.5621,-1029 580.5621,-1065"/>
<text text-anchor="middle" x="549.3542" y="-1043.7" font-family="Courier,monospace" font-size="11.00" fill="#000000">Nullify</text>
</g>
<!-- \\Freshwork\\Transbank\\WebpayCaptureNullify\\CaptureResponse -->
<g id="node49" class="node">
<title>\\Freshwork\\Transbank\\WebpayCaptureNullify\\CaptureResponse</title>
<polygon fill="none" stroke="#000000" points="606.8704,-1011 491.8381,-1011 491.8381,-975 606.8704,-975 606.8704,-1011"/>
<text text-anchor="middle" x="549.3542" y="-989.7" font-family="Courier,monospace" font-size="11.00" fill="#000000">CaptureResponse</text>
</g>
<!-- \\Freshwork\\Transbank\\WebpayCaptureNullify\\BaseBean -->
<g id="node50" class="node">
<title>\\Freshwork\\Transbank\\WebpayCaptureNullify\\BaseBean</title>
<polygon fill="none" stroke="#000000" points="583.6631,-957 515.0454,-957 515.0454,-921 583.6631,-921 583.6631,-957"/>
<text text-anchor="middle" x="549.3542" y="-935.7" font-family="Courier,monospace" font-size="11.00" fill="#000000">BaseBean</text>
</g>
<!-- \\Freshwork\\Transbank\\WebpayCaptureNullify\\NullificationOutput -->
<g id="node51" class="node">
<title>\\Freshwork\\Transbank\\WebpayCaptureNullify\\NullificationOutput</title>
<polygon fill="none" stroke="#000000" points="620.2753,-903 478.4332,-903 478.4332,-867 620.2753,-867 620.2753,-903"/>
<text text-anchor="middle" x="549.3542" y="-881.7" font-family="Courier,monospace" font-size="11.00" fill="#000000">NullificationOutput</text>
</g>
<!-- \\Freshwork\\Transbank\\WebpayCaptureNullify\\Capture -->
<g id="node52" class="node">
<title>\\Freshwork\\Transbank\\WebpayCaptureNullify\\Capture</title>
<polygon fill="none" stroke="#000000" points="580.5621,-849 518.1464,-849 518.1464,-813 580.5621,-813 580.5621,-849"/>
<text text-anchor="middle" x="549.3542" y="-827.7" font-family="Courier,monospace" font-size="11.00" fill="#000000">Capture</text>
</g>
<!-- \\Freshwork\\Transbank\\WebpayCaptureNullify\\NullifyResponse -->
<g id="node53" class="node">
<title>\\Freshwork\\Transbank\\WebpayCaptureNullify\\NullifyResponse</title>
<polygon fill="none" stroke="#000000" points="606.8704,-795 491.8381,-795 491.8381,-759 606.8704,-759 606.8704,-795"/>
<text text-anchor="middle" x="549.3542" y="-773.7" font-family="Courier,monospace" font-size="11.00" fill="#000000">NullifyResponse</text>
</g>
<!-- \\Freshwork\\Transbank\\WebpayCaptureNullify\\WebpayCaptureNullifyWebService -->
<g id="node54" class="node">
<title>\\Freshwork\\Transbank\\WebpayCaptureNullify\\WebpayCaptureNullifyWebService</title>
<polygon fill="none" stroke="#000000" points="656.3865,-741 442.322,-741 442.322,-705 656.3865,-705 656.3865,-741"/>
<text text-anchor="middle" x="549.3542" y="-719.7" font-family="Courier,monospace" font-size="11.00" fill="#000000">WebpayCaptureNullifyWebService</text>
</g>
<!-- \\Freshwork\\Transbank\\WebpayCaptureNullify\\WebpayCaptureNullifyWebService&#45;&gt;\\Freshwork\\Transbank\\TransbankWebService -->
<g id="edge13" class="edge">
<title>\\Freshwork\\Transbank\\WebpayCaptureNullify\\WebpayCaptureNullifyWebService&#45;&gt;\\Freshwork\\Transbank\\TransbankWebService</title>
<path fill="none" stroke="#000000" d="M442.2458,-740.0264C438.1711,-742.9168 434.3996,-746.2229 431.0376,-750 347.5701,-843.7719 304.7832,-1785.1342 297.4655,-1961.582"/>
<polygon fill="none" stroke="#000000" points="293.9656,-1961.5091 297.0524,-1971.6443 300.9597,-1961.7963 293.9656,-1961.5091"/>
</g>
<!-- \\Freshwork\\Transbank\\TransbankSoap -->
<g id="node55" class="node">
<title>\\Freshwork\\Transbank\\TransbankSoap</title>
<polygon fill="none" stroke="#000000" points="600.1684,-3479 498.5401,-3479 498.5401,-3443 600.1684,-3443 600.1684,-3479"/>
<text text-anchor="middle" x="549.3542" y="-3457.7" font-family="Courier,monospace" font-size="11.00" fill="#000000">TransbankSoap</text>
</g>
<!-- SoapClient -->
<g id="node68" class="node">
<title>SoapClient</title>
<ellipse fill="none" stroke="#000000" cx="296.3274" cy="-3613" rx="49.3205" ry="18"/>
<text text-anchor="middle" x="296.3274" y="-3608.8" font-family="Times,serif" font-size="14.00" fill="#c0c0c0">SoapClient</text>
</g>
<!-- \\Freshwork\\Transbank\\TransbankSoap&#45;&gt;SoapClient -->
<g id="edge1" class="edge">
<title>\\Freshwork\\Transbank\\TransbankSoap&#45;&gt;SoapClient</title>
<path fill="none" stroke="#000000" d="M526.866,-3479.0283C493.4981,-3505.157 428.2181,-3553.9243 367.0376,-3586 359.2583,-3590.0785 350.7206,-3593.868 342.3509,-3597.2413"/>
<polygon fill="none" stroke="#000000" points="341.0755,-3593.9819 333.0221,-3600.8662 343.6109,-3600.5066 341.0755,-3593.9819"/>
</g>
<!-- \\Freshwork\\Transbank\\TransbankServiceFactory -->
<g id="node56" class="node">
<title>\\Freshwork\\Transbank\\TransbankServiceFactory</title>
<polygon fill="none" stroke="#000000" points="633.179,-446 465.5294,-446 465.5294,-410 633.179,-410 633.179,-446"/>
<text text-anchor="middle" x="549.3542" y="-424.7" font-family="Courier,monospace" font-size="11.00" fill="#000000">TransbankServiceFactory</text>
</g>
<!-- \\Freshwork\\Transbank\\WebpayNormal -->
<g id="node58" class="node">
<title>\\Freshwork\\Transbank\\WebpayNormal</title>
<polygon fill="none" stroke="#000000" points="597.0674,-392 501.6411,-392 501.6411,-356 597.0674,-356 597.0674,-392"/>
<text text-anchor="middle" x="549.3542" y="-370.7" font-family="Courier,monospace" font-size="11.00" fill="#000000">WebpayNormal</text>
</g>
<!-- \\Freshwork\\Transbank\\WebpayWebService -->
<g id="node66" class="node">
<title>\\Freshwork\\Transbank\\WebpayWebService</title>
<polygon fill="none" stroke="#000000" points="356.9452,-284 235.7096,-284 235.7096,-248 356.9452,-248 356.9452,-284"/>
<text text-anchor="middle" x="296.3274" y="-262.7" font-family="Courier,monospace" font-size="11.00" fill="#000000">WebpayWebService</text>
</g>
<!-- \\Freshwork\\Transbank\\WebpayNormal&#45;&gt;\\Freshwork\\Transbank\\WebpayWebService -->
<g id="edge3" class="edge">
<title>\\Freshwork\\Transbank\\WebpayNormal&#45;&gt;\\Freshwork\\Transbank\\WebpayWebService</title>
<path fill="none" stroke="#000000" d="M501.5245,-368.3933C479.2524,-364.4735 452.9089,-357.9072 431.0376,-347 397.7326,-330.3908 399.0956,-311.9043 367.0376,-293 364.4059,-291.4481 361.669,-289.9554 358.8677,-288.5239"/>
<polygon fill="none" stroke="#000000" points="360.2832,-285.3213 349.7519,-284.1631 357.2624,-291.6359 360.2832,-285.3213"/>
</g>
<!-- \\Freshwork\\Transbank\\TransbankService -->
<g id="node59" class="node">
<title>\\Freshwork\\Transbank\\TransbankService</title>
<polygon fill="none" stroke="#000000" points="153.4264,-311 32.1908,-311 32.1908,-275 153.4264,-275 153.4264,-311"/>
<text text-anchor="start" x="59.8032" y="-295.2" font-family="Courier,monospace" font-size="11.00" fill="#000000">«abstract»</text>
<text text-anchor="start" x="40" y="-284.2" font-family="Courier,monospace" font-size="11.00" fill="#000000">TransbankService</text>
</g>
<!-- \\Freshwork\\Transbank\\CertificationBagFactory -->
<g id="node60" class="node">
<title>\\Freshwork\\Transbank\\CertificationBagFactory</title>
<polygon fill="none" stroke="#000000" points="633.179,-338 465.5294,-338 465.5294,-302 633.179,-302 633.179,-338"/>
<text text-anchor="middle" x="549.3542" y="-316.7" font-family="Courier,monospace" font-size="11.00" fill="#000000">CertificationBagFactory</text>
</g>
<!-- \\Freshwork\\Transbank\\WebpayMall -->
<g id="node61" class="node">
<title>\\Freshwork\\Transbank\\WebpayMall</title>
<polygon fill="none" stroke="#000000" points="590.365,-284 508.3435,-284 508.3435,-248 590.365,-248 590.365,-284"/>
<text text-anchor="middle" x="549.3542" y="-262.7" font-family="Courier,monospace" font-size="11.00" fill="#000000">WebpayMall</text>
</g>
<!-- \\Freshwork\\Transbank\\WebpayMall&#45;&gt;\\Freshwork\\Transbank\\WebpayWebService -->
<g id="edge5" class="edge">
<title>\\Freshwork\\Transbank\\WebpayMall&#45;&gt;\\Freshwork\\Transbank\\WebpayWebService</title>
<path fill="none" stroke="#000000" d="M508.138,-266C470.1227,-266 412.8745,-266 367.4755,-266"/>
<polygon fill="none" stroke="#000000" points="367.3917,-262.5001 357.3916,-266 367.3916,-269.5001 367.3917,-262.5001"/>
</g>
<!-- \\Freshwork\\Transbank\\WebpayOneClick -->
<g id="node62" class="node">
<title>\\Freshwork\\Transbank\\WebpayOneClick</title>
<polygon fill="none" stroke="#000000" points="350.7432,-338 241.9116,-338 241.9116,-302 350.7432,-302 350.7432,-338"/>
<text text-anchor="middle" x="296.3274" y="-316.7" font-family="Courier,monospace" font-size="11.00" fill="#000000">WebpayOneClick</text>
</g>
<!-- \\Freshwork\\Transbank\\WebpayOneClick&#45;&gt;\\Freshwork\\Transbank\\TransbankService -->
<g id="edge8" class="edge">
<title>\\Freshwork\\Transbank\\WebpayOneClick&#45;&gt;\\Freshwork\\Transbank\\TransbankService</title>
<path fill="none" stroke="#000000" d="M242.0554,-312.8C218.0421,-309.6142 189.4809,-305.8251 163.8041,-302.4187"/>
<polygon fill="none" stroke="#000000" points="164.1222,-298.9303 153.7487,-301.0847 163.2015,-305.8695 164.1222,-298.9303"/>
</g>
<!-- \\Freshwork\\Transbank\\WebpayPatPass -->
<g id="node63" class="node">
<title>\\Freshwork\\Transbank\\WebpayPatPass</title>
<polygon fill="none" stroke="#000000" points="600.1684,-230 498.5401,-230 498.5401,-194 600.1684,-194 600.1684,-230"/>
<text text-anchor="middle" x="549.3542" y="-208.7" font-family="Courier,monospace" font-size="11.00" fill="#000000">WebpayPatPass</text>
</g>
<!-- \\Freshwork\\Transbank\\WebpayPatPass&#45;&gt;\\Freshwork\\Transbank\\WebpayWebService -->
<g id="edge9" class="edge">
<title>\\Freshwork\\Transbank\\WebpayPatPass&#45;&gt;\\Freshwork\\Transbank\\WebpayWebService</title>
<path fill="none" stroke="#000000" d="M498.4549,-222.8627C460.6456,-230.9319 408.6044,-242.0383 366.7969,-250.9607"/>
<polygon fill="none" stroke="#000000" points="366.0011,-247.5516 356.9519,-253.0618 367.4622,-254.3974 366.0011,-247.5516"/>
</g>
<!-- \\Freshwork\\Transbank\\CertificationBag -->
<g id="node64" class="node">
<title>\\Freshwork\\Transbank\\CertificationBag</title>
<polygon fill="none" stroke="#000000" points="609.972,-176 488.7365,-176 488.7365,-140 609.972,-140 609.972,-176"/>
<text text-anchor="middle" x="549.3542" y="-154.7" font-family="Courier,monospace" font-size="11.00" fill="#000000">CertificationBag</text>
</g>
<!-- \\Freshwork\\Transbank\\SecurityHelper -->
<g id="node65" class="node">
<title>\\Freshwork\\Transbank\\SecurityHelper</title>
<polygon fill="none" stroke="#000000" points="603.7701,-122 494.9384,-122 494.9384,-86 603.7701,-86 603.7701,-122"/>
<text text-anchor="middle" x="549.3542" y="-100.7" font-family="Courier,monospace" font-size="11.00" fill="#000000">SecurityHelper</text>
</g>
<!-- \\Freshwork\\Transbank\\WebpayWebService&#45;&gt;\\Freshwork\\Transbank\\TransbankService -->
<g id="edge12" class="edge">
<title>\\Freshwork\\Transbank\\WebpayWebService&#45;&gt;\\Freshwork\\Transbank\\TransbankService</title>
<path fill="none" stroke="#000000" d="M235.5407,-274.0643C212.992,-277.0558 187.221,-280.4747 163.8388,-283.5767"/>
<polygon fill="none" stroke="#000000" points="163.0863,-280.1458 153.6335,-284.9306 164.007,-287.085 163.0863,-280.1458"/>
</g>
<!-- \\Freshwork\\Transbank\\RedirectorHelper -->
<g id="node67" class="node">
<title>\\Freshwork\\Transbank\\RedirectorHelper</title>
<polygon fill="none" stroke="#000000" points="609.972,-68 488.7365,-68 488.7365,-32 609.972,-32 609.972,-68"/>
<text text-anchor="middle" x="549.3542" y="-46.7" font-family="Courier,monospace" font-size="11.00" fill="#000000">RedirectorHelper</text>
</g>
</g>
</svg>
