<?xml version="1.0" encoding="UTF-8" standalone="no"?>
<!DOCTYPE svg PUBLIC "-//W3C//DTD SVG 1.1//EN"
 "http://www.w3.org/Graphics/SVG/1.1/DTD/svg11.dtd">
<!-- Generated by graphviz version 2.40.1 (20161225.0304)
 -->
<!-- Title: G Pages: 1 -->
<svg width="708pt" height="3666pt"
 viewBox="0.00 0.00 707.67 3666.00" xmlns="http://www.w3.org/2000/svg" xmlns:xlink="http://www.w3.org/1999/xlink">
<g id="graph0" class="graph" transform="scale(1 1) rotate(0) translate(4 3662)">
<title>G</title>
<polygon fill="#ffffff" stroke="transparent" points="-4,4 -4,-3662 703.6709,-3662 703.6709,4 -4,4"/>
<g id="clust1" class="cluster">
<title>cluster_Global</title>
<path fill="none" stroke="#c0c0c0" d="M20,-8C20,-8 679.6709,-8 679.6709,-8 685.6709,-8 691.6709,-14 691.6709,-20 691.6709,-20 691.6709,-3638 691.6709,-3638 691.6709,-3644 685.6709,-3650 679.6709,-3650 679.6709,-3650 20,-3650 20,-3650 14,-3650 8,-3644 8,-3638 8,-3638 8,-20 8,-20 8,-14 14,-8 20,-8"/>
<text text-anchor="middle" x="349.8354" y="-3637.2" font-family="Times,serif" font-size="11.00" fill="#c0c0c0">Global</text>
</g>
<g id="clust2" class="cluster">
<title>cluster_\Freshwork</title>
<path fill="none" stroke="#c0c0c0" d="M28,-16C28,-16 671.6709,-16 671.6709,-16 677.6709,-16 683.6709,-22 683.6709,-28 683.6709,-28 683.6709,-3513 683.6709,-3513 683.6709,-3519 677.6709,-3525 671.6709,-3525 671.6709,-3525 28,-3525 28,-3525 22,-3525 16,-3519 16,-3513 16,-3513 16,-28 16,-28 16,-22 22,-16 28,-16"/>
<text text-anchor="middle" x="349.8354" y="-3512.2" font-family="Times,serif" font-size="11.00" fill="#c0c0c0">Freshwork</text>
</g>
<g id="clust3" class="cluster">
<title>cluster_\Freshwork\Transbank</title>
<path fill="none" stroke="#c0c0c0" d="M36,-24C36,-24 663.6709,-24 663.6709,-24 669.6709,-24 675.6709,-30 675.6709,-36 675.6709,-36 675.6709,-3486 675.6709,-3486 675.6709,-3492 669.6709,-3498 663.6709,-3498 663.6709,-3498 36,-3498 36,-3498 30,-3498 24,-3492 24,-3486 24,-3486 24,-36 24,-36 24,-30 30,-24 36,-24"/>
<text text-anchor="middle" x="349.8354" y="-3485.2" font-family="Times,serif" font-size="11.00" fill="#c0c0c0">Transbank</text>
</g>
<g id="clust4" class="cluster">
<title>cluster_\Freshwork\Transbank\WebpayOneClick</title>
<path fill="none" stroke="#c0c0c0" d="M443.0376,-1254C443.0376,-1254 655.6709,-1254 655.6709,-1254 661.6709,-1254 667.6709,-1260 667.6709,-1266 667.6709,-1266 667.6709,-2501 667.6709,-2501 667.6709,-2507 661.6709,-2513 655.6709,-2513 655.6709,-2513 443.0376,-2513 443.0376,-2513 437.0376,-2513 431.0376,-2507 431.0376,-2501 431.0376,-2501 431.0376,-1266 431.0376,-1266 431.0376,-1260 437.0376,-1254 443.0376,-1254"/>
<text text-anchor="middle" x="549.3542" y="-2500.2" font-family="Times,serif" font-size="11.00" fill="#c0c0c0">WebpayOneClick</text>
</g>
<g id="clust5" class="cluster">
<title>cluster_\Freshwork\Transbank\WebpayCaptureNullify</title>
<path fill="none" stroke="#c0c0c0" d="M446.3381,-689C446.3381,-689 652.3704,-689 652.3704,-689 658.3704,-689 664.3704,-695 664.3704,-701 664.3704,-701 664.3704,-1234 664.3704,-1234 664.3704,-1240 658.3704,-1246 652.3704,-1246 652.3704,-1246 446.3381,-1246 446.3381,-1246 440.3381,-1246 434.3381,-1240 434.3381,-1234 434.3381,-1234 434.3381,-701 434.3381,-701 434.3381,-695 440.3381,-689 446.3381,-689"/>
<text text-anchor="middle" x="549.3542" y="-1233.2" font-family="Times,serif" font-size="11.00" fill="#c0c0c0">WebpayCaptureNullify</text>
</g>
<g id="clust6" class="cluster">
<title>cluster_\Freshwork\Transbank\Log</title>
<path fill="none" stroke="#c0c0c0" d="M242.8193,-348C242.8193,-348 645.7693,-348 645.7693,-348 651.7693,-348 657.7693,-354 657.7693,-360 657.7693,-360 657.7693,-569 657.7693,-569 657.7693,-575 651.7693,-581 645.7693,-581 645.7693,-581 242.8193,-581 242.8193,-581 236.8193,-581 230.8193,-575 230.8193,-569 230.8193,-569 230.8193,-360 230.8193,-360 230.8193,-354 236.8193,-348 242.8193,-348"/>
<text text-anchor="middle" x="444.2943" y="-568.2" font-family="Times,serif" font-size="11.00" fill="#c0c0c0">Log</text>
</g>
<g id="clust7" class="cluster">
<title>cluster_\Freshwork\Transbank\WebpayStandard</title>
<path fill="none" stroke="#c0c0c0" d="M446.3381,-2521C446.3381,-2521 652.3704,-2521 652.3704,-2521 658.3704,-2521 664.3704,-2527 664.3704,-2533 664.3704,-2533 664.3704,-3282 664.3704,-3282 664.3704,-3288 658.3704,-3294 652.3704,-3294 652.3704,-3294 446.3381,-3294 446.3381,-3294 440.3381,-3294 434.3381,-3288 434.3381,-3282 434.3381,-3282 434.3381,-2533 434.3381,-2533 434.3381,-2527 440.3381,-2521 446.3381,-2521"/>
<text text-anchor="middle" x="549.3542" y="-3281.2" font-family="Times,serif" font-size="11.00" fill="#c0c0c0">WebpayStandard</text>
</g>
<g id="clust8" class="cluster">
<title>cluster_\Freshwork\Transbank\Exceptions</title>
<path fill="none" stroke="#c0c0c0" d="M456.2397,-3302C456.2397,-3302 642.4688,-3302 642.4688,-3302 648.4688,-3302 654.4688,-3308 654.4688,-3314 654.4688,-3314 654.4688,-3415 654.4688,-3415 654.4688,-3421 648.4688,-3427 642.4688,-3427 642.4688,-3427 456.2397,-3427 456.2397,-3427 450.2397,-3427 444.2397,-3421 444.2397,-3415 444.2397,-3415 444.2397,-3314 444.2397,-3314 444.2397,-3308 450.2397,-3302 456.2397,-3302"/>
<text text-anchor="middle" x="549.3542" y="-3414.2" font-family="Times,serif" font-size="11.00" fill="#c0c0c0">Exceptions</text>
</g>
<!-- \\Freshwork\\Transbank\\WebpayOneClick\\RemoveUser -->
<g id="node1" class="node">
<title>\\Freshwork\\Transbank\\WebpayOneClick\\RemoveUser</title>
<polygon fill="none" stroke="#000000" points="590.365,-2486 508.3435,-2486 508.3435,-2450 590.365,-2450 590.365,-2486"/>
<text text-anchor="middle" x="549.3542" y="-2464.7" font-family="Courier,monospace" font-size="11.00" fill="#000000">RemoveUser</text>
</g>
<!-- \\Freshwork\\Transbank\\WebpayOneClick\\RemoveUserResponse -->
<g id="node2" class="node">
<title>\\Freshwork\\Transbank\\WebpayOneClick\\RemoveUserResponse</title>
<polygon fill="none" stroke="#000000" points="616.6737,-2432 482.0348,-2432 482.0348,-2396 616.6737,-2396 616.6737,-2432"/>
<text text-anchor="middle" x="549.3542" y="-2410.7" font-family="Courier,monospace" font-size="11.00" fill="#000000">RemoveUserResponse</text>
</g>
<!-- \\Freshwork\\Transbank\\WebpayOneClick\\OneClickReverseInput -->
<g id="node3" class="node">
<title>\\Freshwork\\Transbank\\WebpayOneClick\\OneClickReverseInput</title>
<polygon fill="none" stroke="#000000" points="623.3757,-2378 475.3328,-2378 475.3328,-2342 623.3757,-2342 623.3757,-2378"/>
<text text-anchor="middle" x="549.3542" y="-2356.7" font-family="Courier,monospace" font-size="11.00" fill="#000000">OneClickReverseInput</text>
</g>
<!-- \\Freshwork\\Transbank\\WebpayOneClick\\ReverseResponse -->
<g id="node4" class="node">
<title>\\Freshwork\\Transbank\\WebpayOneClick\\ReverseResponse</title>
<polygon fill="none" stroke="#000000" points="606.8704,-2324 491.8381,-2324 491.8381,-2288 606.8704,-2288 606.8704,-2324"/>
<text text-anchor="middle" x="549.3542" y="-2302.7" font-family="Courier,monospace" font-size="11.00" fill="#000000">ReverseResponse</text>
</g>
<!-- \\Freshwork\\Transbank\\WebpayOneClick\\OneClickFinishInscriptionInput -->
<g id="node5" class="node">
<title>\\Freshwork\\Transbank\\WebpayOneClick\\OneClickFinishInscriptionInput</title>
<polygon fill="none" stroke="#000000" points="656.3865,-2270 442.322,-2270 442.322,-2234 656.3865,-2234 656.3865,-2270"/>
<text text-anchor="middle" x="549.3542" y="-2248.7" font-family="Courier,monospace" font-size="11.00" fill="#000000">OneClickFinishInscriptionInput</text>
</g>
<!-- \\Freshwork\\Transbank\\WebpayOneClick\\Reverse -->
<g id="node6" class="node">
<title>\\Freshwork\\Transbank\\WebpayOneClick\\Reverse</title>
<polygon fill="none" stroke="#000000" points="580.5621,-2216 518.1464,-2216 518.1464,-2180 580.5621,-2180 580.5621,-2216"/>
<text text-anchor="middle" x="549.3542" y="-2194.7" font-family="Courier,monospace" font-size="11.00" fill="#000000">Reverse</text>
</g>
<!-- \\Freshwork\\Transbank\\WebpayOneClick\\FinishInscriptionResponse -->
<g id="node7" class="node">
<title>\\Freshwork\\Transbank\\WebpayOneClick\\FinishInscriptionResponse</title>
<polygon fill="none" stroke="#000000" points="639.8811,-2162 458.8274,-2162 458.8274,-2126 639.8811,-2126 639.8811,-2162"/>
<text text-anchor="middle" x="549.3542" y="-2140.7" font-family="Courier,monospace" font-size="11.00" fill="#000000">FinishInscriptionResponse</text>
</g>
<!-- \\Freshwork\\Transbank\\WebpayOneClick\\Authorize -->
<g id="node8" class="node">
<title>\\Freshwork\\Transbank\\WebpayOneClick\\Authorize</title>
<polygon fill="none" stroke="#000000" points="587.265,-2108 511.4435,-2108 511.4435,-2072 587.265,-2072 587.265,-2108"/>
<text text-anchor="middle" x="549.3542" y="-2086.7" font-family="Courier,monospace" font-size="11.00" fill="#000000">Authorize</text>
</g>
<!-- \\Freshwork\\Transbank\\WebpayOneClick\\CodeReverseOneClickResponse -->
<g id="node9" class="node">
<title>\\Freshwork\\Transbank\\WebpayOneClick\\CodeReverseOneClickResponse</title>
<polygon fill="none" stroke="#000000" points="646.5834,-2054 452.1251,-2054 452.1251,-2018 646.5834,-2018 646.5834,-2054"/>
<text text-anchor="middle" x="549.3542" y="-2032.7" font-family="Courier,monospace" font-size="11.00" fill="#000000">CodeReverseOneClickResponse</text>
</g>
<!-- \\Freshwork\\Transbank\\WebpayOneClick\\FinishInscription -->
<g id="node10" class="node">
<title>\\Freshwork\\Transbank\\WebpayOneClick\\FinishInscription</title>
<polygon fill="none" stroke="#000000" points="613.5727,-2000 485.1358,-2000 485.1358,-1964 613.5727,-1964 613.5727,-2000"/>
<text text-anchor="middle" x="549.3542" y="-1978.7" font-family="Courier,monospace" font-size="11.00" fill="#000000">FinishInscription</text>
</g>
<!-- \\Freshwork\\Transbank\\WebpayOneClick\\OneClickPayOutput -->
<g id="node11" class="node">
<title>\\Freshwork\\Transbank\\WebpayOneClick\\OneClickPayOutput</title>
<polygon fill="none" stroke="#000000" points="613.5727,-1946 485.1358,-1946 485.1358,-1910 613.5727,-1910 613.5727,-1946"/>
<text text-anchor="middle" x="549.3542" y="-1924.7" font-family="Courier,monospace" font-size="11.00" fill="#000000">OneClickPayOutput</text>
</g>
<!-- \\Freshwork\\Transbank\\WebpayOneClick\\InitInscription -->
<g id="node12" class="node">
<title>\\Freshwork\\Transbank\\WebpayOneClick\\InitInscription</title>
<polygon fill="none" stroke="#000000" points="606.8704,-1892 491.8381,-1892 491.8381,-1856 606.8704,-1856 606.8704,-1892"/>
<text text-anchor="middle" x="549.3542" y="-1870.7" font-family="Courier,monospace" font-size="11.00" fill="#000000">InitInscription</text>
</g>
<!-- \\Freshwork\\Transbank\\WebpayOneClick\\OneClickInscriptionInput -->
<g id="node13" class="node">
<title>\\Freshwork\\Transbank\\WebpayOneClick\\OneClickInscriptionInput</title>
<polygon fill="none" stroke="#000000" points="636.7806,-1838 461.9279,-1838 461.9279,-1802 636.7806,-1802 636.7806,-1838"/>
<text text-anchor="middle" x="549.3542" y="-1816.7" font-family="Courier,monospace" font-size="11.00" fill="#000000">OneClickInscriptionInput</text>
</g>
<!-- \\Freshwork\\Transbank\\WebpayOneClick\\InitInscriptionResponse -->
<g id="node14" class="node">
<title>\\Freshwork\\Transbank\\WebpayOneClick\\InitInscriptionResponse</title>
<polygon fill="none" stroke="#000000" points="633.179,-1784 465.5294,-1784 465.5294,-1748 633.179,-1748 633.179,-1784"/>
<text text-anchor="middle" x="549.3542" y="-1762.7" font-family="Courier,monospace" font-size="11.00" fill="#000000">InitInscriptionResponse</text>
</g>
<!-- \\Freshwork\\Transbank\\WebpayOneClick\\OneClickReverseOutput -->
<g id="node15" class="node">
<title>\\Freshwork\\Transbank\\WebpayOneClick\\OneClickReverseOutput</title>
<polygon fill="none" stroke="#000000" points="626.4773,-1730 472.2312,-1730 472.2312,-1694 626.4773,-1694 626.4773,-1730"/>
<text text-anchor="middle" x="549.3542" y="-1708.7" font-family="Courier,monospace" font-size="11.00" fill="#000000">OneClickReverseOutput</text>
</g>
<!-- \\Freshwork\\Transbank\\WebpayOneClick\\OneClickRemoveUserInput -->
<g id="node16" class="node">
<title>\\Freshwork\\Transbank\\WebpayOneClick\\OneClickRemoveUserInput</title>
<polygon fill="none" stroke="#000000" points="633.179,-1676 465.5294,-1676 465.5294,-1640 633.179,-1640 633.179,-1676"/>
<text text-anchor="middle" x="549.3542" y="-1654.7" font-family="Courier,monospace" font-size="11.00" fill="#000000">OneClickRemoveUserInput</text>
</g>
<!-- \\Freshwork\\Transbank\\WebpayOneClick\\OneClickInscriptionOutput -->
<g id="node17" class="node">
<title>\\Freshwork\\Transbank\\WebpayOneClick\\OneClickInscriptionOutput</title>
<polygon fill="none" stroke="#000000" points="639.8811,-1622 458.8274,-1622 458.8274,-1586 639.8811,-1586 639.8811,-1622"/>
<text text-anchor="middle" x="549.3542" y="-1600.7" font-family="Courier,monospace" font-size="11.00" fill="#000000">OneClickInscriptionOutput</text>
</g>
<!-- \\Freshwork\\Transbank\\WebpayOneClick\\OneClickPayInput -->
<g id="node18" class="node">
<title>\\Freshwork\\Transbank\\WebpayOneClick\\OneClickPayInput</title>
<polygon fill="none" stroke="#000000" points="609.972,-1568 488.7365,-1568 488.7365,-1532 609.972,-1532 609.972,-1568"/>
<text text-anchor="middle" x="549.3542" y="-1546.7" font-family="Courier,monospace" font-size="11.00" fill="#000000">OneClickPayInput</text>
</g>
<!-- \\Freshwork\\Transbank\\WebpayOneClick\\CodeReverseOneClick -->
<g id="node19" class="node">
<title>\\Freshwork\\Transbank\\WebpayOneClick\\CodeReverseOneClick</title>
<polygon fill="none" stroke="#000000" points="620.2753,-1514 478.4332,-1514 478.4332,-1478 620.2753,-1478 620.2753,-1514"/>
<text text-anchor="middle" x="549.3542" y="-1492.7" font-family="Courier,monospace" font-size="11.00" fill="#000000">CodeReverseOneClick</text>
</g>
<!-- \\Freshwork\\Transbank\\WebpayOneClick\\OneClickFinishInscriptionOutput -->
<g id="node20" class="node">
<title>\\Freshwork\\Transbank\\WebpayOneClick\\OneClickFinishInscriptionOutput</title>
<polygon fill="none" stroke="#000000" points="659.4879,-1460 439.2206,-1460 439.2206,-1424 659.4879,-1424 659.4879,-1460"/>
<text text-anchor="middle" x="549.3542" y="-1438.7" font-family="Courier,monospace" font-size="11.00" fill="#000000">OneClickFinishInscriptionOutput</text>
</g>
<!-- \\Freshwork\\Transbank\\WebpayOneClick\\AuthorizeResponse -->
<g id="node21" class="node">
<title>\\Freshwork\\Transbank\\WebpayOneClick\\AuthorizeResponse</title>
<polygon fill="none" stroke="#000000" points="613.5727,-1406 485.1358,-1406 485.1358,-1370 613.5727,-1370 613.5727,-1406"/>
<text text-anchor="middle" x="549.3542" y="-1384.7" font-family="Courier,monospace" font-size="11.00" fill="#000000">AuthorizeResponse</text>
</g>
<!-- \\Freshwork\\Transbank\\WebpayOneClick\\BaseBean -->
<g id="node22" class="node">
<title>\\Freshwork\\Transbank\\WebpayOneClick\\BaseBean</title>
<polygon fill="none" stroke="#000000" points="583.6631,-1352 515.0454,-1352 515.0454,-1316 583.6631,-1316 583.6631,-1352"/>
<text text-anchor="middle" x="549.3542" y="-1330.7" font-family="Courier,monospace" font-size="11.00" fill="#000000">BaseBean</text>
</g>
<!-- \\Freshwork\\Transbank\\WebpayOneClick\\WebpayOneClickWebService -->
<g id="node23" class="node">
<title>\\Freshwork\\Transbank\\WebpayOneClick\\WebpayOneClickWebService</title>
<polygon fill="none" stroke="#000000" points="636.7806,-1298 461.9279,-1298 461.9279,-1262 636.7806,-1262 636.7806,-1298"/>
<text text-anchor="middle" x="549.3542" y="-1276.7" font-family="Courier,monospace" font-size="11.00" fill="#000000">WebpayOneClickWebService</text>
</g>
<!-- \\Freshwork\\Transbank\\TransbankWebService -->
<g id="node60" class="node">
<title>\\Freshwork\\Transbank\\TransbankWebService</title>
<polygon fill="none" stroke="#000000" points="367.2484,-1298 225.4064,-1298 225.4064,-1262 367.2484,-1262 367.2484,-1298"/>
<text text-anchor="start" x="263.322" y="-1282.2" font-family="Courier,monospace" font-size="11.00" fill="#000000">«abstract»</text>
<text text-anchor="start" x="233.6172" y="-1271.2" font-family="Courier,monospace" font-size="11.00" fill="#000000">TransbankWebService</text>
</g>
<!-- \\Freshwork\\Transbank\\WebpayOneClick\\WebpayOneClickWebService&#45;&gt;\\Freshwork\\Transbank\\TransbankWebService -->
<g id="edge13" class="edge">
<title>\\Freshwork\\Transbank\\WebpayOneClick\\WebpayOneClickWebService&#45;&gt;\\Freshwork\\Transbank\\TransbankWebService</title>
<path fill="none" stroke="#000000" d="M461.9225,-1280C434.5633,-1280 404.5002,-1280 377.5847,-1280"/>
<polygon fill="none" stroke="#000000" points="377.4355,-1276.5001 367.4354,-1280 377.4354,-1283.5001 377.4355,-1276.5001"/>
</g>
<!-- \\Freshwork\\Transbank\\WebpayCaptureNullify\\WebpayCaptureNullifyWebService -->
<g id="node24" class="node">
<title>\\Freshwork\\Transbank\\WebpayCaptureNullify\\WebpayCaptureNullifyWebService</title>
<polygon fill="none" stroke="#000000" points="656.3865,-1219 442.322,-1219 442.322,-1183 656.3865,-1183 656.3865,-1219"/>
<text text-anchor="middle" x="549.3542" y="-1197.7" font-family="Courier,monospace" font-size="11.00" fill="#000000">WebpayCaptureNullifyWebService</text>
</g>
<!-- \\Freshwork\\Transbank\\WebpayCaptureNullify\\WebpayCaptureNullifyWebService&#45;&gt;\\Freshwork\\Transbank\\TransbankWebService -->
<g id="edge1" class="edge">
<title>\\Freshwork\\Transbank\\WebpayCaptureNullify\\WebpayCaptureNullifyWebService&#45;&gt;\\Freshwork\\Transbank\\TransbankWebService</title>
<path fill="none" stroke="#000000" d="M491.6219,-1219.0252C453.6235,-1230.889 403.7316,-1246.4663 363.8877,-1258.9063"/>
<polygon fill="none" stroke="#000000" points="362.7516,-1255.5943 354.2492,-1261.9157 364.8379,-1262.2762 362.7516,-1255.5943"/>
</g>
<!-- \\Freshwork\\Transbank\\WebpayCaptureNullify\\CaptureResponse -->
<g id="node25" class="node">
<title>\\Freshwork\\Transbank\\WebpayCaptureNullify\\CaptureResponse</title>
<polygon fill="none" stroke="#000000" points="606.8704,-1165 491.8381,-1165 491.8381,-1129 606.8704,-1129 606.8704,-1165"/>
<text text-anchor="middle" x="549.3542" y="-1143.7" font-family="Courier,monospace" font-size="11.00" fill="#000000">CaptureResponse</text>
</g>
<!-- \\Freshwork\\Transbank\\WebpayCaptureNullify\\BaseBean -->
<g id="node26" class="node">
<title>\\Freshwork\\Transbank\\WebpayCaptureNullify\\BaseBean</title>
<polygon fill="none" stroke="#000000" points="583.6631,-1111 515.0454,-1111 515.0454,-1075 583.6631,-1075 583.6631,-1111"/>
<text text-anchor="middle" x="549.3542" y="-1089.7" font-family="Courier,monospace" font-size="11.00" fill="#000000">BaseBean</text>
</g>
<!-- \\Freshwork\\Transbank\\WebpayCaptureNullify\\NullificationOutput -->
<g id="node27" class="node">
<title>\\Freshwork\\Transbank\\WebpayCaptureNullify\\NullificationOutput</title>
<polygon fill="none" stroke="#000000" points="620.2753,-1057 478.4332,-1057 478.4332,-1021 620.2753,-1021 620.2753,-1057"/>
<text text-anchor="middle" x="549.3542" y="-1035.7" font-family="Courier,monospace" font-size="11.00" fill="#000000">NullificationOutput</text>
</g>
<!-- \\Freshwork\\Transbank\\WebpayCaptureNullify\\Capture -->
<g id="node28" class="node">
<title>\\Freshwork\\Transbank\\WebpayCaptureNullify\\Capture</title>
<polygon fill="none" stroke="#000000" points="580.5621,-1003 518.1464,-1003 518.1464,-967 580.5621,-967 580.5621,-1003"/>
<text text-anchor="middle" x="549.3542" y="-981.7" font-family="Courier,monospace" font-size="11.00" fill="#000000">Capture</text>
</g>
<!-- \\Freshwork\\Transbank\\WebpayCaptureNullify\\CaptureInput -->
<g id="node29" class="node">
<title>\\Freshwork\\Transbank\\WebpayCaptureNullify\\CaptureInput</title>
<polygon fill="none" stroke="#000000" points="597.0674,-949 501.6411,-949 501.6411,-913 597.0674,-913 597.0674,-949"/>
<text text-anchor="middle" x="549.3542" y="-927.7" font-family="Courier,monospace" font-size="11.00" fill="#000000">CaptureInput</text>
</g>
<!-- \\Freshwork\\Transbank\\WebpayCaptureNullify\\NullificationInput -->
<g id="node30" class="node">
<title>\\Freshwork\\Transbank\\WebpayCaptureNullify\\NullificationInput</title>
<polygon fill="none" stroke="#000000" points="616.6737,-895 482.0348,-895 482.0348,-859 616.6737,-859 616.6737,-895"/>
<text text-anchor="middle" x="549.3542" y="-873.7" font-family="Courier,monospace" font-size="11.00" fill="#000000">NullificationInput</text>
</g>
<!-- \\Freshwork\\Transbank\\WebpayCaptureNullify\\CaptureOutput -->
<g id="node31" class="node">
<title>\\Freshwork\\Transbank\\WebpayCaptureNullify\\CaptureOutput</title>
<polygon fill="none" stroke="#000000" points="600.1684,-841 498.5401,-841 498.5401,-805 600.1684,-805 600.1684,-841"/>
<text text-anchor="middle" x="549.3542" y="-819.7" font-family="Courier,monospace" font-size="11.00" fill="#000000">CaptureOutput</text>
</g>
<!-- \\Freshwork\\Transbank\\WebpayCaptureNullify\\NullifyResponse -->
<g id="node32" class="node">
<title>\\Freshwork\\Transbank\\WebpayCaptureNullify\\NullifyResponse</title>
<polygon fill="none" stroke="#000000" points="606.8704,-787 491.8381,-787 491.8381,-751 606.8704,-751 606.8704,-787"/>
<text text-anchor="middle" x="549.3542" y="-765.7" font-family="Courier,monospace" font-size="11.00" fill="#000000">NullifyResponse</text>
</g>
<!-- \\Freshwork\\Transbank\\WebpayCaptureNullify\\Nullify -->
<g id="node33" class="node">
<title>\\Freshwork\\Transbank\\WebpayCaptureNullify\\Nullify</title>
<polygon fill="none" stroke="#000000" points="580.5621,-733 518.1464,-733 518.1464,-697 580.5621,-697 580.5621,-733"/>
<text text-anchor="middle" x="549.3542" y="-711.7" font-family="Courier,monospace" font-size="11.00" fill="#000000">Nullify</text>
</g>
<!-- \\Freshwork\\Transbank\\Log\\VoidLogger -->
<g id="node34" class="node">
<title>\\Freshwork\\Transbank\\Log\\VoidLogger</title>
<polygon fill="none" stroke="#000000" points="590.365,-554 508.3435,-554 508.3435,-518 590.365,-518 590.365,-554"/>
<text text-anchor="middle" x="549.3542" y="-532.7" font-family="Courier,monospace" font-size="11.00" fill="#000000">VoidLogger</text>
</g>
<!-- \\Freshwork\\Transbank\\Log\\LoggerInterface -->
<g id="node38" class="node">
<title>\\Freshwork\\Transbank\\Log\\LoggerInterface</title>
<polygon fill="none" stroke="#000000" points="353.8435,-527 238.8113,-527 238.8113,-491 353.8435,-491 353.8435,-527"/>
<text text-anchor="middle" x="296.3274" y="-505.7" font-family="Courier,monospace" font-size="11.00" fill="#000000">LoggerInterface</text>
</g>
<!-- \\Freshwork\\Transbank\\Log\\VoidLogger&#45;&gt;\\Freshwork\\Transbank\\Log\\LoggerInterface -->
<g id="edge2" class="edge">
<title>\\Freshwork\\Transbank\\Log\\VoidLogger&#45;&gt;\\Freshwork\\Transbank\\Log\\LoggerInterface</title>
<path fill="none" stroke="#000000" stroke-dasharray="1,5" d="M508.138,-531.6019C469.2114,-527.4481 410.1187,-521.1424 364.2313,-516.2459"/>
<polygon fill="none" stroke="#000000" points="364.3759,-512.7415 354.0609,-515.1606 363.6331,-519.702 364.3759,-512.7415"/>
</g>
<!-- \\Freshwork\\Transbank\\Log\\TransbankCertificationLogger -->
<g id="node35" class="node">
<title>\\Freshwork\\Transbank\\Log\\TransbankCertificationLogger</title>
<polygon fill="none" stroke="#000000" points="649.6844,-500 449.0241,-500 449.0241,-464 649.6844,-464 649.6844,-500"/>
<text text-anchor="middle" x="549.3542" y="-478.7" font-family="Courier,monospace" font-size="11.00" fill="#000000">TransbankCertificationLogger</text>
</g>
<!-- \\Freshwork\\Transbank\\Log\\TransbankCertificationLogger&#45;&gt;\\Freshwork\\Transbank\\Log\\LoggerInterface -->
<g id="edge5" class="edge">
<title>\\Freshwork\\Transbank\\Log\\TransbankCertificationLogger&#45;&gt;\\Freshwork\\Transbank\\Log\\LoggerInterface</title>
<path fill="none" stroke="#000000" stroke-dasharray="1,5" d="M448.9879,-492.7099C420.4852,-495.7514 390.1309,-498.9904 364.0592,-501.7725"/>
<polygon fill="none" stroke="#000000" points="363.4896,-498.3133 353.9174,-502.8547 364.2324,-505.2738 363.4896,-498.3133"/>
</g>
<!-- \\Freshwork\\Transbank\\Log\\LoggerFactory -->
<g id="node36" class="node">
<title>\\Freshwork\\Transbank\\Log\\LoggerFactory</title>
<polygon fill="none" stroke="#000000" points="600.1684,-446 498.5401,-446 498.5401,-410 600.1684,-410 600.1684,-446"/>
<text text-anchor="middle" x="549.3542" y="-424.7" font-family="Courier,monospace" font-size="11.00" fill="#000000">LoggerFactory</text>
</g>
<!-- \\Freshwork\\Transbank\\Log\\LogHandler -->
<g id="node37" class="node">
<title>\\Freshwork\\Transbank\\Log\\LogHandler</title>
<polygon fill="none" stroke="#000000" points="590.365,-392 508.3435,-392 508.3435,-356 590.365,-356 590.365,-392"/>
<text text-anchor="middle" x="549.3542" y="-370.7" font-family="Courier,monospace" font-size="11.00" fill="#000000">LogHandler</text>
</g>
<!-- \\Freshwork\\Transbank\\WebpayStandard\\InitTransaction -->
<g id="node39" class="node">
<title>\\Freshwork\\Transbank\\WebpayStandard\\InitTransaction</title>
<polygon fill="none" stroke="#000000" points="606.8704,-3267 491.8381,-3267 491.8381,-3231 606.8704,-3231 606.8704,-3267"/>
<text text-anchor="middle" x="549.3542" y="-3245.7" font-family="Courier,monospace" font-size="11.00" fill="#000000">InitTransaction</text>
</g>
<!-- \\Freshwork\\Transbank\\WebpayStandard\\TransactionResultOutput -->
<g id="node40" class="node">
<title>\\Freshwork\\Transbank\\WebpayStandard\\TransactionResultOutput</title>
<polygon fill="none" stroke="#000000" points="633.179,-3213 465.5294,-3213 465.5294,-3177 633.179,-3177 633.179,-3213"/>
<text text-anchor="middle" x="549.3542" y="-3191.7" font-family="Courier,monospace" font-size="11.00" fill="#000000">TransactionResultOutput</text>
</g>
<!-- \\Freshwork\\Transbank\\WebpayStandard\\InitTransactionResponse -->
<g id="node41" class="node">
<title>\\Freshwork\\Transbank\\WebpayStandard\\InitTransactionResponse</title>
<polygon fill="none" stroke="#000000" points="633.179,-3159 465.5294,-3159 465.5294,-3123 633.179,-3123 633.179,-3159"/>
<text text-anchor="middle" x="549.3542" y="-3137.7" font-family="Courier,monospace" font-size="11.00" fill="#000000">InitTransactionResponse</text>
</g>
<!-- \\Freshwork\\Transbank\\WebpayStandard\\TransactionResult -->
<g id="node42" class="node">
<title>\\Freshwork\\Transbank\\WebpayStandard\\TransactionResult</title>
<polygon fill="none" stroke="#000000" points="613.5727,-3105 485.1358,-3105 485.1358,-3069 613.5727,-3069 613.5727,-3105"/>
<text text-anchor="middle" x="549.3542" y="-3083.7" font-family="Courier,monospace" font-size="11.00" fill="#000000">TransactionResult</text>
</g>
<!-- \\Freshwork\\Transbank\\WebpayStandard\\WebpayStandardWebService -->
<g id="node43" class="node">
<title>\\Freshwork\\Transbank\\WebpayStandard\\WebpayStandardWebService</title>
<polygon fill="none" stroke="#000000" points="636.7806,-3051 461.9279,-3051 461.9279,-3015 636.7806,-3015 636.7806,-3051"/>
<text text-anchor="middle" x="549.3542" y="-3029.7" font-family="Courier,monospace" font-size="11.00" fill="#000000">WebpayStandardWebService</text>
</g>
<!-- \\Freshwork\\Transbank\\WebpayStandard\\WebpayStandardWebService&#45;&gt;\\Freshwork\\Transbank\\TransbankWebService -->
<g id="edge8" class="edge">
<title>\\Freshwork\\Transbank\\WebpayStandard\\WebpayStandardWebService&#45;&gt;\\Freshwork\\Transbank\\TransbankWebService</title>
<path fill="none" stroke="#000000" d="M461.9686,-3026.983C450.0682,-3022.4985 439.171,-3015.8148 431.0376,-3006 312.0925,-2862.4653 476.7363,-1497.4831 369.2646,-1306.668"/>
<polygon fill="none" stroke="#000000" points="372.163,-1304.7051 363.763,-1298.2483 366.3031,-1308.5341 372.163,-1304.7051"/>
</g>
<!-- \\Freshwork\\Transbank\\WebpayStandard\\InitTransactionInput -->
<g id="node44" class="node">
<title>\\Freshwork\\Transbank\\WebpayStandard\\InitTransactionInput</title>
<polygon fill="none" stroke="#000000" points="623.3757,-2997 475.3328,-2997 475.3328,-2961 623.3757,-2961 623.3757,-2997"/>
<text text-anchor="middle" x="549.3542" y="-2975.7" font-family="Courier,monospace" font-size="11.00" fill="#000000">InitTransactionInput</text>
</g>
<!-- \\Freshwork\\Transbank\\WebpayStandard\\TransactionDetailOutput -->
<g id="node45" class="node">
<title>\\Freshwork\\Transbank\\WebpayStandard\\TransactionDetailOutput</title>
<polygon fill="none" stroke="#000000" points="633.179,-2943 465.5294,-2943 465.5294,-2907 633.179,-2907 633.179,-2943"/>
<text text-anchor="middle" x="549.3542" y="-2921.7" font-family="Courier,monospace" font-size="11.00" fill="#000000">TransactionDetailOutput</text>
</g>
<!-- \\Freshwork\\Transbank\\WebpayStandard\\AcknowledgeTransactionResponse -->
<g id="node46" class="node">
<title>\\Freshwork\\Transbank\\WebpayStandard\\AcknowledgeTransactionResponse</title>
<polygon fill="none" stroke="#000000" points="656.3865,-2889 442.322,-2889 442.322,-2853 656.3865,-2853 656.3865,-2889"/>
<text text-anchor="middle" x="549.3542" y="-2867.7" font-family="Courier,monospace" font-size="11.00" fill="#000000">AcknowledgeTransactionResponse</text>
</g>
<!-- \\Freshwork\\Transbank\\WebpayStandard\\InitTransactionOutput -->
<g id="node47" class="node">
<title>\\Freshwork\\Transbank\\WebpayStandard\\InitTransactionOutput</title>
<polygon fill="none" stroke="#000000" points="626.4773,-2835 472.2312,-2835 472.2312,-2799 626.4773,-2799 626.4773,-2835"/>
<text text-anchor="middle" x="549.3542" y="-2813.7" font-family="Courier,monospace" font-size="11.00" fill="#000000">InitTransactionOutput</text>
</g>
<!-- \\Freshwork\\Transbank\\WebpayStandard\\TransactionDetail -->
<g id="node48" class="node">
<title>\\Freshwork\\Transbank\\WebpayStandard\\TransactionDetail</title>
<polygon fill="none" stroke="#000000" points="613.5727,-2781 485.1358,-2781 485.1358,-2745 613.5727,-2745 613.5727,-2781"/>
<text text-anchor="middle" x="549.3542" y="-2759.7" font-family="Courier,monospace" font-size="11.00" fill="#000000">TransactionDetail</text>
</g>
<!-- \\Freshwork\\Transbank\\WebpayStandard\\DetailInput -->
<g id="node49" class="node">
<title>\\Freshwork\\Transbank\\WebpayStandard\\DetailInput</title>
<polygon fill="none" stroke="#000000" points="593.4669,-2727 505.2416,-2727 505.2416,-2691 593.4669,-2691 593.4669,-2727"/>
<text text-anchor="middle" x="549.3542" y="-2705.7" font-family="Courier,monospace" font-size="11.00" fill="#000000">DetailInput</text>
</g>
<!-- \\Freshwork\\Transbank\\WebpayStandard\\AcknowledgeTransaction -->
<g id="node50" class="node">
<title>\\Freshwork\\Transbank\\WebpayStandard\\AcknowledgeTransaction</title>
<polygon fill="none" stroke="#000000" points="630.078,-2673 468.6305,-2673 468.6305,-2637 630.078,-2637 630.078,-2673"/>
<text text-anchor="middle" x="549.3542" y="-2651.7" font-family="Courier,monospace" font-size="11.00" fill="#000000">AcknowledgeTransaction</text>
</g>
<!-- \\Freshwork\\Transbank\\WebpayStandard\\TransactionResultResponse -->
<g id="node51" class="node">
<title>\\Freshwork\\Transbank\\WebpayStandard\\TransactionResultResponse</title>
<polygon fill="none" stroke="#000000" points="639.8811,-2619 458.8274,-2619 458.8274,-2583 639.8811,-2583 639.8811,-2619"/>
<text text-anchor="middle" x="549.3542" y="-2597.7" font-family="Courier,monospace" font-size="11.00" fill="#000000">TransactionResultResponse</text>
</g>
<!-- \\Freshwork\\Transbank\\WebpayStandard\\CardDetail -->
<g id="node52" class="node">
<title>\\Freshwork\\Transbank\\WebpayStandard\\CardDetail</title>
<polygon fill="none" stroke="#000000" points="590.365,-2565 508.3435,-2565 508.3435,-2529 590.365,-2529 590.365,-2565"/>
<text text-anchor="middle" x="549.3542" y="-2543.7" font-family="Courier,monospace" font-size="11.00" fill="#000000">CardDetail</text>
</g>
<!-- \\Freshwork\\Transbank\\Exceptions\\EmptyTransactionException -->
<g id="node53" class="node">
<title>\\Freshwork\\Transbank\\Exceptions\\EmptyTransactionException</title>
<polygon fill="none" stroke="#000000" points="639.8811,-3400 458.8274,-3400 458.8274,-3364 639.8811,-3364 639.8811,-3400"/>
<text text-anchor="middle" x="549.3542" y="-3378.7" font-family="Courier,monospace" font-size="11.00" fill="#000000">EmptyTransactionException</text>
</g>
<!-- Exception -->
<g id="node69" class="node">
<title>Exception</title>
<ellipse fill="none" stroke="#000000" cx="296.3274" cy="-3551" rx="45.92" ry="18"/>
<text text-anchor="middle" x="296.3274" y="-3546.8" font-family="Times,serif" font-size="14.00" fill="#c0c0c0">Exception</text>
</g>
<!-- \\Freshwork\\Transbank\\Exceptions\\EmptyTransactionException&#45;&gt;Exception -->
<g id="edge11" class="edge">
<title>\\Freshwork\\Transbank\\Exceptions\\EmptyTransactionException&#45;&gt;Exception</title>
<path fill="none" stroke="#000000" d="M458.7857,-3390.8509C448.9517,-3394.0976 439.4686,-3398.3787 431.0376,-3404 387.7552,-3432.8584 403.3133,-3464.714 367.0376,-3502 356.5616,-3512.7678 343.4016,-3522.6386 331.284,-3530.655"/>
<polygon fill="none" stroke="#000000" points="329.2336,-3527.8118 322.6981,-3536.1508 333.0074,-3533.7075 329.2336,-3527.8118"/>
</g>
<!-- \\Freshwork\\Transbank\\Exceptions\\InvalidCertificateException -->
<g id="node54" class="node">
<title>\\Freshwork\\Transbank\\Exceptions\\InvalidCertificateException</title>
<polygon fill="none" stroke="#000000" points="646.5834,-3346 452.1251,-3346 452.1251,-3310 646.5834,-3310 646.5834,-3346"/>
<text text-anchor="middle" x="549.3542" y="-3324.7" font-family="Courier,monospace" font-size="11.00" fill="#000000">InvalidCertificateException</text>
</g>
<!-- \\Freshwork\\Transbank\\Exceptions\\InvalidCertificateException&#45;&gt;Exception -->
<g id="edge12" class="edge">
<title>\\Freshwork\\Transbank\\Exceptions\\InvalidCertificateException&#45;&gt;Exception</title>
<path fill="none" stroke="#000000" d="M452.0737,-3342.0056C444.5072,-3345.4819 437.363,-3349.7553 431.0376,-3355 376.184,-3400.482 412.2695,-3446.94 367.0376,-3502 357.654,-3513.4226 344.9565,-3523.3371 332.9102,-3531.2023"/>
<polygon fill="none" stroke="#000000" points="330.9477,-3528.3012 324.3105,-3536.5594 334.6489,-3534.2427 330.9477,-3528.3012"/>
</g>
<!-- \\Freshwork\\Transbank\\TransbankService -->
<g id="node55" class="node">
<title>\\Freshwork\\Transbank\\TransbankService</title>
<polygon fill="none" stroke="#000000" points="153.4264,-257 32.1908,-257 32.1908,-221 153.4264,-221 153.4264,-257"/>
<text text-anchor="start" x="59.8032" y="-241.2" font-family="Courier,monospace" font-size="11.00" fill="#000000">«abstract»</text>
<text text-anchor="start" x="40" y="-230.2" font-family="Courier,monospace" font-size="11.00" fill="#000000">TransbankService</text>
</g>
<!-- \\Freshwork\\Transbank\\CertificationBag -->
<g id="node56" class="node">
<title>\\Freshwork\\Transbank\\CertificationBag</title>
<polygon fill="none" stroke="#000000" points="609.972,-679 488.7365,-679 488.7365,-643 609.972,-643 609.972,-679"/>
<text text-anchor="middle" x="549.3542" y="-657.7" font-family="Courier,monospace" font-size="11.00" fill="#000000">CertificationBag</text>
</g>
<!-- \\Freshwork\\Transbank\\WebpayOneClick -->
<g id="node57" class="node">
<title>\\Freshwork\\Transbank\\WebpayOneClick</title>
<polygon fill="none" stroke="#000000" points="350.7432,-284 241.9116,-284 241.9116,-248 350.7432,-248 350.7432,-284"/>
<text text-anchor="middle" x="296.3274" y="-262.7" font-family="Courier,monospace" font-size="11.00" fill="#000000">WebpayOneClick</text>
</g>
<!-- \\Freshwork\\Transbank\\WebpayOneClick&#45;&gt;\\Freshwork\\Transbank\\TransbankService -->
<g id="edge3" class="edge">
<title>\\Freshwork\\Transbank\\WebpayOneClick&#45;&gt;\\Freshwork\\Transbank\\TransbankService</title>
<path fill="none" stroke="#000000" d="M242.0554,-258.8C218.0421,-255.6142 189.4809,-251.8251 163.8041,-248.4187"/>
<polygon fill="none" stroke="#000000" points="164.1222,-244.9303 153.7487,-247.0847 163.2015,-251.8695 164.1222,-244.9303"/>
</g>
<!-- \\Freshwork\\Transbank\\WebpayWebService -->
<g id="node58" class="node">
<title>\\Freshwork\\Transbank\\WebpayWebService</title>
<polygon fill="none" stroke="#000000" points="356.9452,-230 235.7096,-230 235.7096,-194 356.9452,-194 356.9452,-230"/>
<text text-anchor="middle" x="296.3274" y="-208.7" font-family="Courier,monospace" font-size="11.00" fill="#000000">WebpayWebService</text>
</g>
<!-- \\Freshwork\\Transbank\\WebpayWebService&#45;&gt;\\Freshwork\\Transbank\\TransbankService -->
<g id="edge4" class="edge">
<title>\\Freshwork\\Transbank\\WebpayWebService&#45;&gt;\\Freshwork\\Transbank\\TransbankService</title>
<path fill="none" stroke="#000000" d="M235.5407,-220.0643C212.992,-223.0558 187.221,-226.4747 163.8388,-229.5767"/>
<polygon fill="none" stroke="#000000" points="163.0863,-226.1458 153.6335,-230.9306 164.007,-233.085 163.0863,-226.1458"/>
</g>
<!-- \\Freshwork\\Transbank\\CertificationBagFactory -->
<g id="node59" class="node">
<title>\\Freshwork\\Transbank\\CertificationBagFactory</title>
<polygon fill="none" stroke="#000000" points="633.179,-625 465.5294,-625 465.5294,-589 633.179,-589 633.179,-625"/>
<text text-anchor="middle" x="549.3542" y="-603.7" font-family="Courier,monospace" font-size="11.00" fill="#000000">CertificationBagFactory</text>
</g>
<!-- \\Freshwork\\Transbank\\TransbankSoap -->
<g id="node61" class="node">
<title>\\Freshwork\\Transbank\\TransbankSoap</title>
<polygon fill="none" stroke="#000000" points="600.1684,-3471 498.5401,-3471 498.5401,-3435 600.1684,-3435 600.1684,-3471"/>
<text text-anchor="middle" x="549.3542" y="-3449.7" font-family="Courier,monospace" font-size="11.00" fill="#000000">TransbankSoap</text>
</g>
<!-- SoapClient -->
<g id="node68" class="node">
<title>SoapClient</title>
<ellipse fill="none" stroke="#000000" cx="296.3274" cy="-3605" rx="49.3205" ry="18"/>
<text text-anchor="middle" x="296.3274" y="-3600.8" font-family="Times,serif" font-size="14.00" fill="#c0c0c0">SoapClient</text>
</g>
<!-- \\Freshwork\\Transbank\\TransbankSoap&#45;&gt;SoapClient -->
<g id="edge6" class="edge">
<title>\\Freshwork\\Transbank\\TransbankSoap&#45;&gt;SoapClient</title>
<path fill="none" stroke="#000000" d="M526.866,-3471.0283C493.4981,-3497.157 428.2181,-3545.9243 367.0376,-3578 359.2583,-3582.0785 350.7206,-3585.868 342.3509,-3589.2413"/>
<polygon fill="none" stroke="#000000" points="341.0755,-3585.9819 333.0221,-3592.8662 343.6109,-3592.5066 341.0755,-3585.9819"/>
</g>
<!-- \\Freshwork\\Transbank\\WebpayPatPass -->
<g id="node62" class="node">
<title>\\Freshwork\\Transbank\\WebpayPatPass</title>
<polygon fill="none" stroke="#000000" points="600.1684,-176 498.5401,-176 498.5401,-140 600.1684,-140 600.1684,-176"/>
<text text-anchor="middle" x="549.3542" y="-154.7" font-family="Courier,monospace" font-size="11.00" fill="#000000">WebpayPatPass</text>
</g>
<!-- \\Freshwork\\Transbank\\WebpayPatPass&#45;&gt;\\Freshwork\\Transbank\\WebpayWebService -->
<g id="edge7" class="edge">
<title>\\Freshwork\\Transbank\\WebpayPatPass&#45;&gt;\\Freshwork\\Transbank\\WebpayWebService</title>
<path fill="none" stroke="#000000" d="M498.4549,-168.8627C460.6456,-176.9319 408.6044,-188.0383 366.7969,-196.9607"/>
<polygon fill="none" stroke="#000000" points="366.0011,-193.5516 356.9519,-199.0618 367.4622,-200.3974 366.0011,-193.5516"/>
</g>
<!-- \\Freshwork\\Transbank\\TransbankServiceFactory -->
<g id="node63" class="node">
<title>\\Freshwork\\Transbank\\TransbankServiceFactory</title>
<polygon fill="none" stroke="#000000" points="633.179,-284 465.5294,-284 465.5294,-248 633.179,-248 633.179,-284"/>
<text text-anchor="middle" x="549.3542" y="-262.7" font-family="Courier,monospace" font-size="11.00" fill="#000000">TransbankServiceFactory</text>
</g>
<!-- \\Freshwork\\Transbank\\WebpayNormal -->
<g id="node64" class="node">
<title>\\Freshwork\\Transbank\\WebpayNormal</title>
<polygon fill="none" stroke="#000000" points="597.0674,-338 501.6411,-338 501.6411,-302 597.0674,-302 597.0674,-338"/>
<text text-anchor="middle" x="549.3542" y="-316.7" font-family="Courier,monospace" font-size="11.00" fill="#000000">WebpayNormal</text>
</g>
<!-- \\Freshwork\\Transbank\\WebpayNormal&#45;&gt;\\Freshwork\\Transbank\\WebpayWebService -->
<g id="edge9" class="edge">
<title>\\Freshwork\\Transbank\\WebpayNormal&#45;&gt;\\Freshwork\\Transbank\\WebpayWebService</title>
<path fill="none" stroke="#000000" d="M501.5245,-314.3933C479.2524,-310.4735 452.9089,-303.9072 431.0376,-293 397.7326,-276.3908 399.0956,-257.9043 367.0376,-239 364.4059,-237.4481 361.669,-235.9554 358.8677,-234.5239"/>
<polygon fill="none" stroke="#000000" points="360.2832,-231.3213 349.7519,-230.1631 357.2624,-237.6359 360.2832,-231.3213"/>
</g>
<!-- \\Freshwork\\Transbank\\WebpayMall -->
<g id="node65" class="node">
<title>\\Freshwork\\Transbank\\WebpayMall</title>
<polygon fill="none" stroke="#000000" points="590.365,-230 508.3435,-230 508.3435,-194 590.365,-194 590.365,-230"/>
<text text-anchor="middle" x="549.3542" y="-208.7" font-family="Courier,monospace" font-size="11.00" fill="#000000">WebpayMall</text>
</g>
<!-- \\Freshwork\\Transbank\\WebpayMall&#45;&gt;\\Freshwork\\Transbank\\WebpayWebService -->
<g id="edge10" class="edge">
<title>\\Freshwork\\Transbank\\WebpayMall&#45;&gt;\\Freshwork\\Transbank\\WebpayWebService</title>
<path fill="none" stroke="#000000" d="M508.138,-212C470.1227,-212 412.8745,-212 367.4755,-212"/>
<polygon fill="none" stroke="#000000" points="367.3917,-208.5001 357.3916,-212 367.3916,-215.5001 367.3917,-208.5001"/>
</g>
<!-- \\Freshwork\\Transbank\\RedirectorHelper -->
<g id="node66" class="node">
<title>\\Freshwork\\Transbank\\RedirectorHelper</title>
<polygon fill="none" stroke="#000000" points="609.972,-122 488.7365,-122 488.7365,-86 609.972,-86 609.972,-122"/>
<text text-anchor="middle" x="549.3542" y="-100.7" font-family="Courier,monospace" font-size="11.00" fill="#000000">RedirectorHelper</text>
</g>
<!-- \\Freshwork\\Transbank\\SecurityHelper -->
<g id="node67" class="node">
<title>\\Freshwork\\Transbank\\SecurityHelper</title>
<polygon fill="none" stroke="#000000" points="603.7701,-68 494.9384,-68 494.9384,-32 603.7701,-32 603.7701,-68"/>
<text text-anchor="middle" x="549.3542" y="-46.7" font-family="Courier,monospace" font-size="11.00" fill="#000000">SecurityHelper</text>
</g>
</g>
</svg>
